# Blender v2.92.0 OBJ File: 'MIOS.blend'
# www.blender.org
mtllib Escalera.mtl
o Cube.004_Cube.005
v -2.791264 -0.027373 0.890660
v -2.791264 -0.027373 -1.109340
v -2.791264 1.470017 -1.109340
v 2.791263 -0.027373 0.890660
v 2.791263 -0.027373 -1.109340
v 2.791263 1.470017 -1.109340
v -2.791264 0.120658 0.890660
v -2.791264 1.470017 -0.743102
v -2.791264 0.120658 0.709131
v -2.791264 0.289328 0.709131
v -2.791264 0.289328 0.527602
v -2.791264 0.457998 0.527602
v -2.791264 0.457998 0.346073
v -2.791264 0.626668 0.346073
v -2.791264 0.626668 0.164544
v -2.791264 0.795338 0.164544
v -2.791264 0.795338 -0.016986
v -2.791264 0.964008 -0.016986
v -2.791264 0.964008 -0.198515
v -2.791264 1.132678 -0.198515
v -2.791264 1.132678 -0.380044
v -2.791264 1.301347 -0.380044
v -2.791264 1.301347 -0.561573
v -2.791264 1.470017 -0.561573
v 2.791263 1.470017 -0.743102
v 2.791263 0.120658 0.890660
v 2.791263 1.470017 -0.561573
v 2.791263 1.301347 -0.561573
v 2.791263 1.301347 -0.380044
v 2.791263 1.132678 -0.380044
v 2.791263 1.132678 -0.198515
v 2.791263 0.964008 -0.198515
v 2.791263 0.964008 -0.016986
v 2.791263 0.795338 -0.016986
v 2.791263 0.795338 0.164544
v 2.791263 0.626668 0.164544
v 2.791263 0.626668 0.346073
v 2.791263 0.457998 0.346073
v 2.791263 0.457998 0.527602
v 2.791263 0.289328 0.527602
v 2.791263 0.289328 0.709131
v 2.791263 0.120658 0.709131
vt 0.258792 0.005857
vt 0.258792 0.664307
vt 0.215595 0.664307
vt 0.215595 0.005857
vt 0.182471 0.664307
vt 0.005856 0.664307
vt 0.005856 0.005857
vt 0.182471 0.005857
vt 0.270505 0.005857
vt 0.287965 0.005857
vt 0.287965 0.027268
vt 0.307860 0.027268
vt 0.307860 0.048679
vt 0.327754 0.048679
vt 0.327754 0.070090
vt 0.347648 0.070090
vt 0.347648 0.091501
vt 0.367543 0.091501
vt 0.367543 0.112912
vt 0.387437 0.112912
vt 0.387437 0.134323
vt 0.407332 0.134323
vt 0.407332 0.155734
vt 0.427226 0.155734
vt 0.427226 0.177145
vt 0.447120 0.177145
vt 0.447120 0.198556
vt 0.447120 0.241753
vt 0.270505 0.241753
vt 0.194985 0.007905
vt 0.194985 0.530094
vt 0.007904 0.530094
vt 0.007904 0.007905
vt 0.447120 0.489363
vt 0.270505 0.489363
vt 0.270505 0.446166
vt 0.270505 0.424755
vt 0.290400 0.424755
vt 0.290400 0.403344
vt 0.310294 0.403344
vt 0.310294 0.381933
vt 0.330188 0.381933
vt 0.330188 0.360522
vt 0.350083 0.360522
vt 0.350083 0.339111
vt 0.369977 0.339111
vt 0.369977 0.317700
vt 0.389871 0.317700
vt 0.389871 0.296288
vt 0.409766 0.296288
vt 0.409766 0.274877
vt 0.429660 0.274877
vt 0.429660 0.253466
vt 0.447120 0.253466
vt 0.194184 0.664307
vt 0.194184 0.005857
vt 0.723825 0.664307
vt 0.723825 0.005857
vt 0.743720 0.005857
vt 0.743720 0.664307
vt 0.678988 0.005857
vt 0.678988 0.664307
vt 0.657577 0.664307
vt 0.657577 0.005857
vt 0.913469 0.664307
vt 0.913469 0.005857
vt 0.933363 0.005857
vt 0.933363 0.664307
vt 0.645864 0.005857
vt 0.645864 0.664307
vt 0.624453 0.664307
vt 0.624453 0.005857
vt 0.818647 0.664307
vt 0.818647 0.005857
vt 0.838541 0.005857
vt 0.838541 0.664307
vt 0.546492 0.005857
vt 0.546492 0.664307
vt 0.525081 0.664307
vt 0.525081 0.005857
vt 0.755433 0.664307
vt 0.755433 0.005857
vt 0.775327 0.005857
vt 0.775327 0.664307
vt 0.480244 0.005857
vt 0.480244 0.664307
vt 0.458833 0.664307
vt 0.458833 0.005857
vt 0.881862 0.664307
vt 0.881862 0.005857
vt 0.901756 0.005857
vt 0.901756 0.664307
vt 0.712112 0.005857
vt 0.712112 0.664307
vt 0.690701 0.664307
vt 0.690701 0.005857
vt 0.850254 0.664307
vt 0.850254 0.005857
vt 0.870149 0.005857
vt 0.870149 0.664307
vt 0.513368 0.005857
vt 0.513368 0.664307
vt 0.491957 0.664307
vt 0.491957 0.005857
vt 0.787040 0.664307
vt 0.787040 0.005857
vt 0.806934 0.005857
vt 0.806934 0.664307
vt 0.579616 0.005857
vt 0.579616 0.664307
vt 0.558205 0.664307
vt 0.558205 0.005857
vt 0.945076 0.664307
vt 0.945076 0.005857
vt 0.964970 0.005857
vt 0.964970 0.664307
vt 0.612740 0.005857
vt 0.612740 0.664307
vt 0.591329 0.664307
vt 0.591329 0.005857
vt 0.994143 0.664307
vt 0.976683 0.664307
vt 0.976683 0.005857
vt 0.994143 0.005857
vn 0.0000 1.0000 0.0000
vn 0.0000 0.0000 -1.0000
vn -1.0000 -0.0000 0.0000
vn 0.0000 -1.0000 0.0000
vn 1.0000 0.0000 0.0000
vn 0.0000 0.0000 1.0000
usemtl None
s off
f 6/1/1 3/2/1 8/3/1 25/4/1
f 2/5/2 3/6/2 6/7/2 5/8/2
f 1/9/3 7/10/3 9/11/3 10/12/3 11/13/3 12/14/3 13/15/3 14/16/3 15/17/3 16/18/3 17/19/3 18/20/3 19/21/3 20/22/3 21/23/3 22/24/3 23/25/3 24/26/3 8/27/3 3/28/3 2/29/3
f 2/30/4 5/31/4 4/32/4 1/33/4
f 5/34/5 6/35/5 25/36/5 27/37/5 28/38/5 29/39/5 30/40/5 31/41/5 32/42/5 33/43/5 34/44/5 35/45/5 36/46/5 37/47/5 38/48/5 39/49/5 40/50/5 41/51/5 42/52/5 26/53/5 4/54/5
f 25/4/1 8/3/1 24/55/1 27/56/1
f 27/57/6 24/58/6 23/59/6 28/60/6
f 28/61/1 23/62/1 22/63/1 29/64/1
f 29/65/6 22/66/6 21/67/6 30/68/6
f 30/69/1 21/70/1 20/71/1 31/72/1
f 31/73/6 20/74/6 19/75/6 32/76/6
f 32/77/1 19/78/1 18/79/1 33/80/1
f 33/81/6 18/82/6 17/83/6 34/84/6
f 34/85/1 17/86/1 16/87/1 35/88/1
f 35/89/6 16/90/6 15/91/6 36/92/6
f 36/93/1 15/94/1 14/95/1 37/96/1
f 37/97/6 14/98/6 13/99/6 38/100/6
f 38/101/1 13/102/1 12/103/1 39/104/1
f 39/105/6 12/106/6 11/107/6 40/108/6
f 40/109/1 11/110/1 10/111/1 41/112/1
f 41/113/6 10/114/6 9/115/6 42/116/6
f 42/117/1 9/118/1 7/119/1 26/120/1
f 4/121/6 26/122/6 7/123/6 1/124/6
