# Blender v2.92.0 OBJ File: 'MIOS.blend'
# www.blender.org
mtllib Puente.mtl
o Cube.005_Cube.006
v -2.756947 -0.031190 5.031814
v -2.655074 0.419713 4.789854
v -2.756947 -0.031190 -2.906843
v -2.786463 0.418786 -3.076069
v 2.756893 -0.031190 5.031814
v 2.655021 0.419713 4.789854
v 2.756893 -0.031190 -2.906843
v 2.786409 0.418786 -3.076069
v -0.000027 -0.031190 -2.906843
v -0.000027 0.432631 -2.906843
v -0.000027 -0.031190 5.031814
v -0.000027 0.432631 5.031814
v -1.378487 -0.031190 -2.906843
v -1.378487 0.432631 5.031814
v -1.378487 0.432631 -2.906843
v -1.378487 -0.031190 5.031814
v 1.378433 0.432631 -2.906843
v 1.378433 -0.031190 5.031814
v 1.378433 -0.031190 -2.906843
v 1.378433 0.432631 5.031814
v -2.067717 -0.031190 -2.906843
v -2.083782 0.430651 4.881294
v -1.956504 0.518523 -3.088420
v -2.067717 -0.031190 5.031814
v 1.956451 0.518523 -3.088420
v 2.067663 -0.031190 5.031814
v 2.067663 -0.031190 -2.906843
v 2.083730 0.430651 4.881294
v -2.756947 -0.031190 1.062486
v -2.803432 0.418733 1.110271
v 2.756893 -0.031190 1.062486
v 2.803379 0.418733 1.110271
v -0.000027 0.432631 1.062486
v -0.000027 -0.031190 1.062486
v -1.378487 -0.031190 1.062486
v -1.378487 0.432631 1.062486
v 1.378433 0.432631 1.062486
v 1.378433 -0.031190 1.062486
v -2.067717 -0.031190 1.062486
v -1.940104 0.528901 1.110992
v 1.940051 0.528901 1.110992
v 2.067663 -0.031190 1.062486
v -2.803432 0.418733 -0.974706
v 2.756893 -0.031190 -0.922179
v -2.756947 -0.031190 -0.922179
v 2.803379 0.418733 -0.974706
v -0.000027 0.432631 -0.922179
v -0.000027 -0.031190 -0.922179
v -1.378487 -0.031190 -0.922179
v -1.378487 0.432631 -0.922179
v 1.378433 0.432631 -0.922179
v 1.378433 -0.031190 -0.922179
v -2.067717 -0.031190 -0.922179
v -1.940104 0.528901 -0.975591
v 1.940051 0.528901 -0.975591
v 2.067663 -0.031190 -0.922179
v -2.756947 -0.031190 3.047150
v 2.786410 0.418786 3.140011
v -0.000027 0.432631 3.047150
v -0.000027 -0.031190 3.047150
v -1.378487 -0.031190 3.047150
v -1.378487 0.432631 3.047150
v 1.378433 0.432631 3.047150
v 1.378433 -0.031190 3.047150
v -2.067717 -0.031190 3.047150
v -1.956504 0.518523 3.150328
v 1.956451 0.518523 3.150328
v 2.067663 -0.031190 3.047150
v -2.786463 0.418786 3.140011
v 2.756893 -0.031190 3.047150
v -2.960195 0.836279 -0.975629
v -2.941030 0.836285 -3.076039
v 2.221365 0.848664 -3.077837
v 2.940977 0.836285 -3.076039
v 2.940977 0.836285 3.130893
v 2.804013 0.836418 4.720903
v -2.357802 0.838142 4.730494
v -2.804065 0.836418 4.720903
v -2.221418 0.848664 -3.077837
v -2.221418 0.848664 3.132387
v 2.357749 0.838142 4.730494
v 2.221365 0.848664 3.132387
v -2.941030 0.836285 3.130893
v -2.960195 0.836279 1.109538
v 2.960142 0.836279 -0.975629
v 2.960142 0.836279 1.109538
v -2.202348 0.850254 -0.975759
v -2.202348 0.850254 1.109643
v 2.202294 0.850254 -0.975759
v 2.202294 0.850254 1.109643
v -3.153342 1.275974 -0.976267
v -3.127065 1.275898 -3.057881
v 2.431890 1.275690 -3.061529
v 3.094391 1.274383 -3.061309
v 3.094391 1.274383 3.108047
v 2.973167 1.275510 4.619962
v -2.552867 1.275798 4.620899
v -2.973889 1.275543 4.619857
v -2.400037 1.277415 -3.058141
v -2.400037 1.277415 3.103065
v 2.553468 1.275761 4.621004
v 2.431890 1.275690 3.108231
v -3.127065 1.275898 3.102849
v -3.153342 1.275974 1.105214
v 3.117020 1.274431 -0.976200
v 3.117020 1.274431 1.106115
v -2.373829 1.277728 -0.976290
v -2.373829 1.277728 1.105233
v 2.409312 1.275937 -0.976218
v 2.409312 1.275937 1.106130
v -3.360316 1.835453 -0.975856
v -3.334972 1.834672 -3.052994
v 2.641707 1.837174 -3.056806
v 3.304650 1.837089 -3.056792
v 3.304651 1.837089 3.104022
v 3.185896 1.830774 4.597040
v -2.755149 1.830742 4.597000
v -3.186574 1.830724 4.596929
v -2.609617 1.834777 -3.053012
v -2.609617 1.834778 3.098472
v 2.755759 1.830791 4.597111
v 2.641707 1.837175 3.104033
v -3.334972 1.834672 3.098458
v -3.360316 1.835453 1.104774
v 3.326557 1.837855 -0.975831
v 3.326557 1.837855 1.105730
v -2.584840 1.835575 -0.975857
v -2.584840 1.835575 1.104775
v 2.620358 1.837953 -0.975832
v 2.620358 1.837953 1.105731
v -3.337648 2.197079 -0.973796
v -3.327306 2.192754 -3.031049
v 2.879003 2.192809 -3.031122
v 3.326628 2.192805 -3.031122
v 3.326628 2.192805 3.080118
v 3.270190 2.164999 4.472290
v -2.915303 2.164999 4.472292
v -3.270255 2.164998 4.472288
v -2.878393 2.192759 -3.031050
v -2.878393 2.192759 3.080008
v 2.915262 2.165000 4.472294
v 2.879004 2.192809 3.080119
v -3.327306 2.192754 3.080008
v -3.337648 2.197079 1.103099
v 3.336904 2.197129 -0.973795
v 3.336904 2.197129 1.103117
v -2.871185 2.197085 -0.973796
v -2.871185 2.197085 1.103099
v 2.871861 2.197135 -0.973795
v 2.871861 2.197135 1.103117
v -2.756947 -0.031190 -5.315758
v -2.655074 0.419713 -4.995242
v 2.756893 -0.031190 -5.315758
v 2.655022 0.419713 -4.995242
v -0.000027 -0.031190 -5.315758
v -0.000027 0.432631 -5.315758
v -1.378487 -0.031190 -5.315758
v -1.378487 0.432631 -5.315758
v 1.378433 0.432631 -5.315758
v 1.378433 -0.031190 -5.315758
v -2.067717 -0.031190 -5.315758
v -2.083782 0.430651 -5.103849
v 2.083729 0.430651 -5.103849
v 2.067663 -0.031190 -5.315758
v -2.804065 0.836418 -4.913516
v 2.357750 0.838142 -4.924993
v 2.804013 0.836418 -4.913516
v -2.357802 0.838142 -4.924993
v -2.973889 1.275543 -4.796798
v 2.553469 1.275761 -4.798115
v 2.973167 1.275510 -4.796865
v -2.552867 1.275798 -4.798049
v -3.186574 1.830724 -4.769575
v 2.755759 1.830791 -4.769733
v 3.185896 1.830774 -4.769649
v -2.755149 1.830742 -4.769660
v -3.270255 2.164998 -4.623069
v 2.915262 2.165000 -4.623075
v 3.270190 2.164999 -4.623070
v -2.915303 2.164999 -4.623075
vt 0.538952 0.264724
vt 0.512575 0.261624
vt 0.512539 0.137938
vt 0.538952 0.147905
vt 0.749295 0.126912
vt 0.717373 0.126576
vt 0.716685 0.024185
vt 0.748493 0.025888
vt 0.396773 0.122933
vt 0.370230 0.117467
vt 0.370686 0.020339
vt 0.396773 0.006114
vt 0.781787 0.717514
vt 0.810017 0.718459
vt 0.810215 0.752086
vt 0.781787 0.758082
vt 0.252747 0.431496
vt 0.287566 0.431496
vt 0.287566 0.531758
vt 0.252747 0.531758
vt 0.345109 0.118021
vt 0.345633 0.024413
vt 0.047628 0.498363
vt 0.128766 0.498363
vt 0.128766 0.615182
vt 0.047628 0.615182
vt 0.078654 0.431496
vt 0.148291 0.431496
vt 0.148291 0.531758
vt 0.078653 0.531758
vt 0.781787 0.514670
vt 0.808758 0.514670
vt 0.808758 0.595807
vt 0.781787 0.595807
vt 0.243926 0.137215
vt 0.209903 0.147905
vt 0.209903 0.006114
vt 0.251418 0.018587
vt 0.488280 0.137918
vt 0.488004 0.029780
vt 0.512228 0.024992
vt 0.043835 0.431496
vt 0.043835 0.531758
vt 0.209903 0.498363
vt 0.209903 0.615182
vt 0.808758 0.676945
vt 0.781787 0.676945
vt 0.781787 0.474101
vt 0.810017 0.473155
vt 0.013606 0.504434
vt 0.006114 0.606322
vt 0.217928 0.431496
vt 0.217928 0.531758
vt 0.601573 0.473592
vt 0.635014 0.473289
vt 0.634862 0.574098
vt 0.601815 0.575793
vt 0.009016 0.431496
vt 0.009016 0.531758
vt 0.462782 0.138959
vt 0.462503 0.036626
vt 0.243926 0.504434
vt 0.251418 0.606322
vt 0.556680 0.228056
vt 0.556101 0.108017
vt 0.576041 0.109040
vt 0.576097 0.228103
vt 0.781787 0.433532
vt 0.810215 0.439529
vt 0.148291 0.130710
vt 0.078654 0.130710
vt 0.078654 0.009016
vt 0.148291 0.009016
vt 0.217928 0.230972
vt 0.252747 0.230972
vt 0.252747 0.331234
vt 0.217928 0.331234
vt 0.512575 0.384347
vt 0.488318 0.384281
vt 0.488318 0.261547
vt 0.209903 0.264724
vt 0.242961 0.261578
vt 0.242961 0.384397
vt 0.209903 0.381544
vt 0.009016 0.230972
vt 0.043835 0.230972
vt 0.043835 0.331234
vt 0.009016 0.331234
vt 0.148291 0.230972
vt 0.148291 0.331234
vt 0.014571 0.261578
vt 0.047628 0.264724
vt 0.047628 0.381544
vt 0.014571 0.384397
vt 0.128766 0.264724
vt 0.128766 0.381544
vt 0.078654 0.230972
vt 0.078654 0.331234
vt 0.674523 0.491945
vt 0.675196 0.371906
vt 0.693052 0.371865
vt 0.692885 0.490928
vt 0.287566 0.230972
vt 0.287566 0.331234
vt 0.396773 0.356571
vt 0.370167 0.359665
vt 0.370167 0.236941
vt 0.396773 0.239752
vt 0.538952 0.498362
vt 0.512539 0.503821
vt 0.538952 0.381543
vt 0.396773 0.473390
vt 0.370230 0.483351
vt 0.252747 0.130710
vt 0.287566 0.130710
vt 0.345035 0.237002
vt 0.047628 0.147905
vt 0.128766 0.147905
vt 0.043835 0.130710
vt 0.013606 0.137215
vt 0.217928 0.130710
vt 0.009016 0.130710
vt 0.668868 0.593848
vt 0.691738 0.585012
vt 0.538952 0.615180
vt 0.512228 0.600950
vt 0.396773 0.615180
vt 0.370686 0.596297
vt 0.556680 0.350874
vt 0.576097 0.350851
vt 0.252747 0.009016
vt 0.287566 0.009016
vt 0.601544 0.228284
vt 0.601544 0.350852
vt 0.835076 0.760856
vt 0.835088 0.734588
vt 0.861538 0.746070
vt 0.861533 0.770852
vt 0.693052 0.249116
vt 0.717493 0.249112
vt 0.717493 0.371632
vt 0.576041 0.474578
vt 0.318783 0.119382
vt 0.319187 0.030374
vt 0.345035 0.359737
vt 0.318692 0.359787
vt 0.318692 0.237221
vt 0.692885 0.125389
vt 0.953676 0.497026
vt 0.927253 0.497026
vt 0.929425 0.403319
vt 0.950318 0.403319
vt 0.488280 0.503263
vt 0.488004 0.596870
vt 0.345109 0.483366
vt 0.675196 0.249088
vt 0.674523 0.124727
vt 0.835076 0.430759
vt 0.835088 0.457026
vt 0.556101 0.475235
vt 0.551181 0.006114
vt 0.575688 0.014956
vt 0.601573 0.110435
vt 0.601815 0.021376
vt 0.634862 0.022758
vt 0.635014 0.110657
vt 0.462828 0.261482
vt 0.462828 0.383999
vt 0.430319 0.383943
vt 0.430319 0.261476
vt 0.861535 0.445506
vt 0.861530 0.420802
vt 0.894027 0.408281
vt 0.894027 0.433599
vt 0.717373 0.489230
vt 0.716685 0.578591
vt 0.318783 0.482516
vt 0.462782 0.501585
vt 0.462503 0.590898
vt 0.009016 0.009016
vt 0.043835 0.009016
vt 0.749295 0.488993
vt 0.749438 0.371639
vt 0.769559 0.371582
vt 0.769277 0.487946
vt 0.914600 0.403319
vt 0.914600 0.424211
vt 0.284917 0.119643
vt 0.284787 0.237267
vt 0.263646 0.237419
vt 0.263940 0.121049
vt 0.748493 0.577217
vt 0.767503 0.569901
vt 0.006114 0.018587
vt 0.047628 0.006114
vt 0.635018 0.350804
vt 0.635018 0.228281
vt 0.656640 0.228404
vt 0.656640 0.350652
vt 0.894025 0.783370
vt 0.894025 0.757977
vt 0.914600 0.767403
vt 0.914600 0.788296
vt 0.749438 0.249171
vt 0.769559 0.249334
vt 0.430258 0.589518
vt 0.430316 0.501297
vt 0.284917 0.482273
vt 0.319187 0.584656
vt 0.285749 0.583077
vt 0.284787 0.359789
vt 0.285749 0.031746
vt 0.217928 0.009016
vt 0.927253 0.856729
vt 0.953676 0.856729
vt 0.950318 0.938681
vt 0.929425 0.938681
vt 0.967118 0.856736
vt 0.993466 0.856736
vt 0.991331 0.938681
vt 0.970440 0.938681
vt 0.966513 0.618118
vt 0.993886 0.618118
vt 0.993886 0.740367
vt 0.966513 0.740367
vt 0.926828 0.618118
vt 0.954285 0.618118
vt 0.954285 0.740366
vt 0.926828 0.740366
vt 0.967118 0.497022
vt 0.993466 0.497022
vt 0.409001 0.383846
vt 0.409001 0.261599
vt 0.654834 0.030085
vt 0.656399 0.112035
vt 0.430316 0.139217
vt 0.409235 0.140508
vt 0.263940 0.480762
vt 0.263646 0.359667
vt 0.409235 0.500210
vt 0.410757 0.582169
vt 0.538952 0.006114
vt 0.769277 0.128243
vt 0.265792 0.039098
vt 0.656399 0.471747
vt 0.781787 0.320309
vt 0.810846 0.321255
vt 0.811429 0.354882
vt 0.781787 0.360878
vt 0.781787 0.117465
vt 0.808591 0.117465
vt 0.808591 0.198603
vt 0.781787 0.198603
vt 0.781787 0.076897
vt 0.810846 0.075951
vt 0.808591 0.279740
vt 0.781787 0.279740
vt 0.781787 0.036328
vt 0.811429 0.042324
vt 0.836395 0.337384
vt 0.836423 0.363651
vt 0.836395 0.059822
vt 0.836423 0.033554
vt 0.863105 0.023558
vt 0.863106 0.048340
vt 0.863103 0.348904
vt 0.863103 0.373608
vt 0.895493 0.036434
vt 0.895493 0.011039
vt 0.916449 0.006114
vt 0.916449 0.027007
vt 0.895495 0.360811
vt 0.895495 0.386129
vt 0.916449 0.370199
vt 0.916449 0.391091
vt 0.668868 0.006114
vt 0.691738 0.016682
vt 0.265792 0.574458
vt 0.575688 0.583285
vt 0.551181 0.593848
vt 0.345633 0.591503
vt 0.128766 0.006114
vt 0.654834 0.565446
vt 0.410757 0.046808
vt 0.430258 0.038198
vt 0.767503 0.034541
vt 0.970440 0.403319
vt 0.991332 0.403319
vt 0.063987 0.750154
vt 0.065323 0.627422
vt 0.104318 0.627410
vt 0.105644 0.750154
vt 0.416963 0.744864
vt 0.417036 0.705843
vt 0.449668 0.693558
vt 0.449668 0.732553
vt 0.305213 0.749897
vt 0.263646 0.749897
vt 0.264902 0.627409
vt 0.303924 0.627409
vt 0.372146 0.627409
vt 0.404735 0.639674
vt 0.404735 0.681331
vt 0.372227 0.668976
vt 0.449755 0.627409
vt 0.449755 0.669065
vt 0.416963 0.681330
vt 0.417045 0.639763
vt 0.318731 0.627409
vt 0.357753 0.627409
vt 0.359009 0.745031
vt 0.317441 0.745031
vt 0.158194 0.627420
vt 0.159528 0.745256
vt 0.117872 0.745256
vt 0.119199 0.627410
vt 0.372218 0.732580
vt 0.372146 0.693559
vt 0.404644 0.705870
vt 0.404644 0.744866
vt 0.597063 0.728616
vt 0.551180 0.728616
vt 0.552719 0.606076
vt 0.595513 0.606090
vt 0.248912 0.673293
vt 0.216549 0.685405
vt 0.216642 0.639759
vt 0.248912 0.627410
vt 0.609292 0.728339
vt 0.610784 0.606077
vt 0.653479 0.606076
vt 0.654937 0.728339
vt 0.506479 0.627409
vt 0.538952 0.639578
vt 0.538952 0.682371
vt 0.506563 0.670104
vt 0.462067 0.639677
vt 0.494251 0.627409
vt 0.494251 0.670202
vt 0.461983 0.682372
vt 0.670418 0.606087
vt 0.713211 0.606076
vt 0.714751 0.723670
vt 0.668868 0.723670
vt 0.171756 0.627410
vt 0.204320 0.639521
vt 0.204320 0.685404
vt 0.171851 0.673056
vt 0.050267 0.627411
vt 0.051759 0.744761
vt 0.006114 0.744761
vt 0.007572 0.627410
vn -0.9964 -0.0852 -0.0041
vn 0.9339 0.3482 -0.0812
vn 0.9957 0.0859 0.0360
vn -0.0698 0.3996 0.9140
vn 0.0000 -1.0000 0.0000
vn 0.9392 -0.3345 0.0779
vn 0.0000 1.0000 0.0000
vn 0.0000 0.0000 1.0000
vn 0.0647 0.9977 -0.0217
vn -0.9397 -0.3354 -0.0672
vn 0.1062 0.1578 0.9817
vn -0.0643 0.9976 0.0258
vn -0.9356 0.3472 -0.0645
vn -0.9282 -0.3643 -0.0753
vn 0.0643 0.9976 0.0258
vn -0.1062 0.1578 0.9817
vn -0.7772 0.6292 0.0086
vn 0.0698 0.3996 0.9140
vn -0.9362 -0.3515 0.0000
vn 0.1690 0.9856 0.0000
vn -0.1690 0.9856 0.0000
vn 0.7772 0.6292 0.0086
vn 0.9947 -0.1028 0.0000
vn -0.9964 -0.0848 0.0042
vn 0.9964 -0.0852 -0.0041
vn 0.9370 -0.3492 0.0084
vn -0.1585 0.9874 -0.0031
vn 0.1585 0.9874 -0.0031
vn 0.7959 0.6000 0.0808
vn -0.9947 -0.1028 0.0000
vn -0.9957 0.0859 0.0360
vn 0.9959 0.0851 -0.0302
vn 0.1583 0.9874 0.0032
vn -0.1583 0.9874 0.0032
vn -0.7748 0.6323 0.0000
vn 0.9964 -0.0848 0.0042
vn -0.8993 0.4373 0.0000
vn -0.0125 0.2287 0.9734
vn 0.9281 0.3723 0.0000
vn -0.8980 0.4399 -0.0091
vn 0.9392 -0.3343 0.0783
vn 0.9415 -0.3371 0.0000
vn 0.9255 0.3786 -0.0102
vn -0.0000 0.9998 -0.0174
vn -0.9370 -0.3492 0.0084
vn -0.9392 -0.3345 0.0779
vn 0.9370 -0.3493 -0.0081
vn -0.9370 -0.3493 -0.0081
vn 0.7773 0.6291 -0.0083
vn 0.0992 0.2085 0.9730
vn -0.7773 0.6291 -0.0083
vn 0.9362 -0.3515 0.0000
vn -0.0992 0.2085 0.9730
vn -0.7959 0.6000 0.0808
vn 0.7748 0.6323 -0.0000
vn -0.9350 0.3470 0.0740
vn -0.9379 -0.3470 0.0000
vn 0.0013 0.0416 0.9991
vn 0.9097 0.4062 0.0860
vn 0.9427 -0.3335 0.0098
vn 0.0125 0.2285 0.9735
vn 0.9254 0.3788 0.0106
vn -0.9156 -0.4022 0.0000
vn -0.8979 0.4336 0.0759
vn -0.8979 0.4400 0.0095
vn -0.9183 -0.3958 -0.0100
vn 0.9426 -0.3337 -0.0094
vn -0.9183 -0.3956 0.0104
vn -0.9278 -0.3630 0.0866
vn 0.7916 0.6110 0.0072
vn 0.0001 0.3497 0.9368
vn 0.9990 -0.0449 0.0080
vn 0.8430 0.5346 0.0591
vn -0.0647 0.9977 -0.0217
vn -0.8192 0.5736 0.0000
vn -0.0001 0.3494 0.9370
vn 0.7839 0.6209 0.0000
vn -0.9323 -0.3497 0.0927
vn 0.9340 -0.3515 -0.0645
vn 0.9373 -0.3486 0.0000
vn 0.9333 -0.3513 0.0739
vn 0.9353 0.3538 0.0000
vn -0.0013 0.0417 0.9991
vn -0.9362 0.3515 0.0000
vn 0.9329 0.3478 0.0929
vn -0.0000 0.9998 0.0199
vn 0.0000 0.9998 0.0200
vn -0.0000 1.0000 -0.0021
vn 0.0000 1.0000 0.0022
vn -0.9980 0.0626 0.0000
vn -0.8609 0.5062 0.0508
vn -0.8253 0.5646 0.0066
vn -0.9991 0.0424 -0.0087
vn 0.9990 -0.0449 -0.0077
vn -0.9991 0.0424 0.0090
vn -0.9931 -0.0947 0.0695
vn -0.9959 0.0851 -0.0302
vn 0.7916 0.6110 -0.0069
vn 0.9996 -0.0288 0.0000
vn 0.9885 -0.1397 0.0584
vn -0.8253 0.5646 -0.0064
vn 0.0783 0.5078 -0.8579
vn 0.0000 0.0000 -1.0000
vn -0.1469 0.2183 -0.9648
vn -0.0783 0.5078 -0.8579
vn 0.1469 0.2183 -0.9648
vn 0.1166 0.2445 -0.9626
vn -0.0148 0.2620 -0.9649
vn -0.1166 0.2445 -0.9626
vn 0.0148 0.2619 -0.9650
vn -0.0001 0.4015 -0.9159
vn 0.0016 0.0494 -0.9988
vn -0.0016 0.0494 -0.9988
vn 0.0001 0.4017 -0.9158
vn 0.7969 0.6001 -0.0697
vn 0.9889 -0.1396 -0.0510
vn -0.7969 0.6001 -0.0697
vn 0.9396 -0.3353 -0.0680
vn -0.8611 0.5064 -0.0444
vn 0.9110 0.4056 -0.0748
vn -0.9937 -0.0943 -0.0608
vn 0.8432 0.5351 -0.0516
vn -0.8989 0.4332 -0.0660
vn 0.9397 -0.3354 -0.0672
vn 0.0000 0.9998 -0.0175
vn -0.9332 -0.3500 -0.0810
vn 0.0021 1.0000 -0.0001
vn -0.0002 -0.0081 1.0000
vn -0.0001 -1.0000 0.0004
vn 0.0000 0.0007 -1.0000
vn 0.0000 0.0007 1.0000
vn -0.0001 -1.0000 -0.0004
vn 0.0021 1.0000 0.0001
vn -0.0002 -0.0073 -1.0000
vn -0.0022 1.0000 -0.0001
vn 0.0002 -1.0000 0.0004
vn 0.0002 -0.0089 1.0000
vn 0.0002 -0.0080 -1.0000
vn -0.0022 1.0000 0.0001
vn -0.0000 0.0008 1.0000
vn 0.0002 -1.0000 -0.0004
usemtl Material.003
s off
f 45/1/1 43/2/1 4/3/1 3/4/1
f 119/5/2 99/6/2 172/7/2 176/8/2
f 70/9/3 58/10/3 6/11/3 5/12/3
f 24/13/4 22/14/4 2/15/4 1/16/4
f 68/17/5 70/18/5 5/19/5 26/20/5
f 6/11/6 58/10/6 75/21/6 76/22/6
f 63/23/7 59/24/7 12/25/7 20/26/7
f 61/27/5 60/28/5 11/29/5 16/30/5
f 18/31/8 20/32/8 12/33/8 11/34/8
f 23/35/9 15/36/9 158/37/9 162/38/9
f 4/3/10 72/39/10 165/40/10 152/41/10
f 65/42/5 61/27/5 16/30/5 24/43/5
f 59/24/7 62/44/7 14/45/7 12/25/7
f 11/34/8 12/33/8 14/46/8 16/47/8
f 26/48/11 28/49/11 20/32/11 18/31/11
f 67/50/12 63/23/12 20/26/12 28/51/12
f 60/28/5 64/52/5 18/53/5 11/29/5
f 93/54/13 113/55/13 174/56/13 170/57/13
f 57/58/5 65/42/5 24/43/5 1/59/5
f 72/39/14 92/60/14 169/61/14 165/40/14
f 62/44/15 66/62/15 22/63/15 14/45/15
f 16/47/16 14/46/16 22/14/16 24/13/16
f 41/64/17 67/65/17 82/66/17 90/67/17
f 5/68/18 6/69/18 28/49/18 26/48/18
f 64/52/5 68/17/5 26/20/5 18/53/5
f 9/70/5 13/71/5 157/72/5 155/73/5
f 52/74/5 56/75/5 42/76/5 38/77/5
f 43/2/19 30/78/19 84/79/19 71/80/19
f 50/81/20 54/82/20 40/83/20 36/84/20
f 45/85/5 53/86/5 39/87/5 29/88/5
f 48/89/5 52/74/5 38/77/5 34/90/5
f 55/91/21 51/92/21 37/93/21 41/94/21
f 47/95/7 50/81/7 36/84/7 33/96/7
f 53/86/5 49/97/5 35/98/5 39/87/5
f 49/97/5 48/89/5 34/90/5 35/98/5
f 51/92/7 47/95/7 33/96/7 37/93/7
f 66/99/22 40/100/22 88/101/22 80/102/22
f 56/75/5 44/103/5 31/104/5 42/76/5
f 44/105/23 46/106/23 32/107/23 31/108/23
f 57/109/24 69/110/24 30/78/24 29/111/24
f 7/112/25 8/113/25 46/106/25 44/105/25
f 27/114/5 7/115/5 44/103/5 56/75/5
f 58/10/26 32/107/26 86/116/26 75/21/26
f 17/117/7 10/118/7 47/95/7 51/92/7
f 13/71/5 9/70/5 48/89/5 49/97/5
f 21/119/5 13/71/5 49/97/5 53/86/5
f 10/118/7 15/36/7 50/81/7 47/95/7
f 25/120/27 17/117/27 51/92/27 55/91/27
f 9/70/5 19/121/5 52/74/5 48/89/5
f 3/122/5 21/119/5 53/86/5 45/85/5
f 15/36/28 23/35/28 54/82/28 50/81/28
f 22/123/29 66/99/29 80/102/29 77/124/29
f 19/121/5 27/114/5 56/75/5 52/74/5
f 29/111/30 30/78/30 43/2/30 45/1/30
f 1/125/31 2/126/31 69/110/31 57/109/31
f 38/77/5 42/76/5 68/17/5 64/52/5
f 8/113/32 7/112/32 153/127/32 154/128/32
f 36/84/33 40/83/33 66/62/33 62/44/33
f 29/88/5 39/87/5 65/42/5 57/58/5
f 34/90/5 38/77/5 64/52/5 60/28/5
f 41/94/34 37/93/34 63/23/34 67/50/34
f 33/96/7 36/84/7 62/44/7 59/24/7
f 39/87/5 35/98/5 61/27/5 65/42/5
f 35/98/5 34/90/5 60/28/5 61/27/5
f 37/93/7 33/96/7 59/24/7 63/23/7
f 55/129/35 41/64/35 90/67/35 89/130/35
f 42/76/5 31/104/5 70/18/5 68/17/5
f 31/108/36 32/107/36 58/10/36 70/9/36
f 7/115/5 27/114/5 164/131/5 153/132/5
f 89/130/37 90/67/37 110/133/37 109/134/37
f 78/135/38 77/136/38 97/137/38 98/138/38
f 88/101/39 87/139/39 107/140/39 108/141/39
f 73/142/40 89/130/40 109/134/40 93/54/40
f 76/22/41 75/21/41 95/143/41 96/144/41
f 86/116/42 85/145/42 105/146/42 106/147/42
f 87/139/43 79/148/43 99/6/43 107/140/43
f 132/149/44 139/150/44 180/151/44 177/152/44
f 30/78/45 69/110/45 83/153/45 84/79/45
f 69/110/46 2/126/46 78/154/46 83/153/46
f 46/106/47 8/113/47 74/155/47 85/145/47
f 4/3/48 43/2/48 71/80/48 72/39/48
f 54/156/49 23/157/49 79/148/49 87/139/49
f 28/49/50 6/69/50 76/158/50 81/159/50
f 25/160/51 55/129/51 89/130/51 73/142/51
f 32/107/52 46/106/52 85/145/52 86/116/52
f 2/15/53 22/14/53 77/136/53 78/135/53
f 67/65/54 28/161/54 81/162/54 82/66/54
f 40/100/55 54/156/55 87/139/55 88/101/55
f 102/163/56 101/164/56 121/165/56 122/166/56
f 91/167/57 104/168/57 124/169/57 111/170/57
f 101/171/58 96/172/58 116/173/58 121/174/58
f 77/124/59 80/102/59 100/175/59 97/176/59
f 75/21/60 86/116/60 106/147/60 95/143/60
f 81/159/61 76/158/61 96/172/61 101/171/61
f 80/102/62 88/101/62 108/141/62 100/175/62
f 71/80/63 84/79/63 104/168/63 91/167/63
f 82/66/64 81/162/64 101/164/64 102/163/64
f 90/67/65 82/66/65 102/163/65 110/133/65
f 72/39/66 71/80/66 91/167/66 92/60/66
f 85/145/67 74/155/67 94/177/67 105/146/67
f 84/79/68 83/153/68 103/178/68 104/168/68
f 83/153/69 78/154/69 98/179/69 103/178/69
f 21/119/5 3/122/5 151/180/5 161/181/5
f 120/182/70 128/183/70 148/184/70 140/185/70
f 121/174/71 116/173/71 136/186/71 141/187/71
f 115/188/72 126/189/72 146/190/72 135/191/72
f 117/192/73 120/182/73 140/185/73 137/193/73
f 17/117/74 25/120/74 163/194/74 159/195/74
f 129/196/75 130/197/75 150/198/75 149/199/75
f 118/200/76 117/201/76 137/202/76 138/203/76
f 128/183/77 127/204/77 147/205/77 148/184/77
f 103/178/78 98/179/78 118/206/78 123/207/78
f 114/208/79 94/177/79 171/209/79 175/210/79
f 106/147/80 105/146/80 125/211/80 126/189/80
f 96/144/81 95/143/81 115/188/81 116/212/81
f 108/141/82 107/140/82 127/204/82 128/183/82
f 98/138/83 97/137/83 117/201/83 118/200/83
f 109/134/84 110/133/84 130/197/84 129/196/84
f 27/114/5 19/121/5 160/213/5 164/131/5
f 97/176/85 100/175/85 120/182/85 117/192/85
f 140/214/86 143/215/86 138/216/86 137/217/86
f 135/218/87 142/219/87 141/220/87 136/221/87
f 145/222/7 149/223/7 150/224/7 146/225/7
f 147/226/7 131/227/7 144/228/7 148/229/7
f 139/150/88 132/149/88 131/227/88 147/226/88
f 134/230/88 133/231/88 149/223/88 145/222/88
f 146/225/89 150/224/89 142/219/89 135/218/89
f 148/229/89 144/228/89 143/215/89 140/214/89
f 111/170/90 124/169/90 144/232/90 131/233/90
f 122/166/91 121/165/91 141/234/91 142/235/91
f 130/197/92 122/166/92 142/235/92 150/198/92
f 112/236/93 111/170/93 131/233/93 132/237/93
f 125/211/94 114/208/94 134/238/94 145/239/94
f 124/169/95 123/207/95 143/240/95 144/232/95
f 123/207/96 118/206/96 138/241/96 143/240/96
f 3/4/97 4/3/97 152/41/97 151/242/97
f 127/204/98 119/5/98 139/243/98 147/205/98
f 126/189/99 125/211/99 145/239/99 146/190/99
f 116/212/100 115/188/100 135/191/100 136/244/100
f 113/55/101 129/196/101 149/199/101 133/245/101
f 164/246/102 163/247/102 154/248/102 153/249/102
f 157/250/103 158/251/103 156/252/103 155/253/103
f 161/254/104 162/255/104 158/251/104 157/250/104
f 155/253/103 156/252/103 159/256/103 160/257/103
f 151/258/105 152/259/105 162/255/105 161/254/105
f 160/257/106 159/256/106 163/247/106 164/246/106
f 154/248/107 163/247/107 166/260/107 167/261/107
f 168/262/108 165/263/108 169/264/108 172/265/108
f 162/255/109 152/259/109 165/263/109 168/262/109
f 167/261/110 166/260/110 170/266/110 171/267/110
f 176/268/111 173/269/111 177/270/111 180/271/111
f 171/267/112 170/266/112 174/272/112 175/273/112
f 172/265/113 169/264/113 173/269/113 176/268/113
f 175/273/114 174/272/114 178/274/114 179/275/114
f 79/148/115 23/157/115 162/276/115 168/277/115
f 13/71/5 21/119/5 161/181/5 157/72/5
f 134/238/116 114/208/116 175/210/116 179/278/116
f 25/160/117 73/142/117 166/279/117 163/280/117
f 19/121/5 9/70/5 155/73/5 160/213/5
f 94/177/118 74/155/118 167/281/118 171/209/118
f 15/36/7 10/118/7 156/282/7 158/37/7
f 113/55/119 133/245/119 178/283/119 174/56/119
f 99/6/120 79/148/120 168/277/120 172/7/120
f 112/236/121 132/237/121 177/284/121 173/285/121
f 10/118/7 17/117/7 159/195/7 156/282/7
f 139/243/122 119/5/122 176/8/122 180/286/122
f 73/142/123 93/54/123 170/57/123 166/279/123
f 74/155/124 8/113/124 154/128/124 167/281/124
f 133/231/125 134/230/125 179/287/125 178/288/125
f 92/60/126 112/236/126 173/285/126 169/61/126
f 105/289/127 94/290/127 93/291/127 109/292/127
f 114/293/128 113/294/128 93/295/128 94/296/128
f 125/297/129 129/298/129 113/299/129 114/300/129
f 125/301/130 105/302/130 109/303/130 129/304/130
f 110/305/131 106/306/131 126/307/131 130/308/131
f 115/309/132 122/310/132 130/311/132 126/312/132
f 95/313/133 106/314/133 110/315/133 102/316/133
f 122/317/134 115/318/134 95/319/134 102/320/134
f 91/321/135 107/322/135 99/323/135 92/324/135
f 91/325/130 111/326/130 127/327/130 107/328/130
f 111/329/136 112/330/136 119/331/136 127/332/136
f 112/333/137 92/334/137 99/335/137 119/336/137
f 120/337/138 100/338/138 103/339/138 123/340/138
f 103/341/139 100/342/139 108/343/139 104/344/139
f 124/345/140 104/346/140 108/347/140 128/348/140
f 123/349/141 124/350/141 128/351/141 120/352/141
