# Blender v2.92.0 OBJ File: 'MIOS.blend'
# www.blender.org
mtllib tomb.mtl
o Cube
v 0.912567 2.807311 -0.600018
v 1.070357 -0.028151 -0.109571
v 0.912567 2.807311 -0.010740
v 1.070357 -0.028151 0.745105
v -1.007918 2.737469 -0.600018
v -0.953481 -0.028280 -0.109571
v -1.007918 2.737469 -0.010740
v -0.953481 -0.028280 0.745105
v -0.971301 -0.028566 0.089802
v -0.971301 -0.028566 0.319876
v -0.971301 -0.028566 0.549950
v 0.568882 -0.028497 -0.116053
v 0.059671 -0.028518 -0.116053
v -0.449541 -0.028540 -0.116053
v 1.087576 2.206429 -0.458989
v 1.089826 1.353441 -0.274369
v 1.091980 0.696506 -0.162210
v -1.032341 0.627555 0.683159
v -1.079102 1.274564 0.521998
v -1.138818 2.125462 0.250639
v 1.087576 2.206429 0.250639
v 1.089826 1.353441 0.521998
v 1.091980 0.696506 0.683159
v -1.138818 2.125462 -0.458989
v -1.079102 1.274564 -0.274369
v -1.032341 0.627555 -0.162210
v 0.434753 3.264665 -0.218325
v -0.072391 3.451996 -0.329558
v -0.564587 3.228323 -0.218325
v 0.922368 2.806944 -0.461848
v 0.922368 2.806944 -0.304102
v 0.922368 2.806944 -0.146356
v -0.449541 -0.028540 0.755805
v 0.059671 -0.028518 0.755805
v 0.568882 -0.028497 0.755805
v -1.017666 2.736392 -0.146356
v -1.017666 2.736392 -0.304102
v -1.017666 2.736392 -0.461848
v -0.564587 3.228323 -0.759358
v -0.072391 3.451996 -0.847589
v 0.434753 3.264665 -0.759358
v 1.090643 -0.028470 0.549950
v 1.090643 -0.028470 0.319876
v 1.090643 -0.028470 0.089802
v -0.485817 0.702242 -0.199007
v 0.027748 0.719011 -0.199007
v 0.541312 0.735780 -0.199007
v -0.522291 1.641262 -0.377642
v -0.010077 1.738535 -0.396127
v 0.507849 1.678725 -0.377642
v -0.559795 2.460529 -0.557604
v -0.042483 2.629603 -0.599178
v 0.485745 2.498553 -0.557604
v 1.158263 0.698917 0.037411
v 1.158263 0.698917 0.260475
v 1.158263 0.698917 0.483538
v 1.159721 1.298927 -0.072084
v 1.159721 1.298927 0.139130
v 1.159721 1.298927 0.350343
v 1.164220 2.178375 -0.282879
v 1.164220 2.178375 -0.093938
v 1.164220 2.178375 0.095002
v -0.445877 -0.029428 0.095353
v -0.445877 -0.029428 0.326204
v -0.445877 -0.029428 0.557055
v 0.063370 -0.029428 0.095353
v 0.063370 -0.029428 0.326204
v 0.063370 -0.029428 0.557055
v 0.572616 -0.029428 0.095353
v 0.572616 -0.029428 0.326204
v 0.572616 -0.029428 0.557055
v -1.098624 0.625144 0.483538
v -1.098624 0.625144 0.260475
v -1.098624 0.625144 0.037411
v -1.144853 1.215117 0.350343
v -1.144853 1.215117 0.139130
v -1.144853 1.215117 -0.072084
v -1.213221 2.091915 0.095002
v -1.213221 2.091915 -0.093938
v -1.213221 2.091915 -0.282879
v 0.541312 0.735780 0.689326
v 0.027748 0.719011 0.689326
v -0.485817 0.702242 0.689326
v 0.507849 1.678725 0.435366
v -0.010077 1.738535 0.404953
v -0.522291 1.641262 0.435366
v 0.485745 2.498553 0.137309
v -0.042483 2.629603 0.051874
v -0.559795 2.460529 0.137309
v 0.431247 3.361060 -0.662941
v 0.431247 3.361060 -0.524572
v 0.431247 3.361060 -0.386202
v -0.075896 3.548391 -0.761162
v -0.075896 3.548391 -0.627047
v -0.075896 3.548391 -0.492931
v -0.568092 3.324717 -0.662941
v -0.568092 3.324717 -0.524572
v -0.568092 3.324717 -0.386202
vt 0.765232 0.694640
vt 0.782235 0.577743
vt 0.803069 0.574636
vt 0.790329 0.680565
vt 0.093378 0.402384
vt 0.092803 0.532499
vt 0.023700 0.450363
vt 0.003171 0.347661
vt 0.965749 0.110417
vt 0.975691 0.007077
vt 0.996829 0.003171
vt 0.991827 0.100588
vt 0.312500 0.687500
vt 0.375000 0.687500
vt 0.375000 0.750000
vt 0.312500 0.750000
vt 0.754638 0.357581
vt 0.772288 0.463147
vt 0.751548 0.459270
vt 0.729871 0.358054
vt 0.608821 0.169794
vt 0.601190 0.046796
vt 0.675379 0.121570
vt 0.702353 0.217594
vt 0.620559 0.568873
vt 0.616676 0.449665
vt 0.702353 0.456996
vt 0.698581 0.569236
vt 0.611904 0.300343
vt 0.702331 0.353337
vt 0.383728 0.568348
vt 0.371825 0.466576
vt 0.456863 0.454328
vt 0.462121 0.568423
vt 0.536770 0.451996
vt 0.541340 0.568648
vt 0.364857 0.364413
vt 0.451620 0.305603
vt 0.531351 0.290429
vt 0.355937 0.228963
vt 0.446140 0.175133
vt 0.526689 0.148313
vt 0.376561 0.131377
vt 0.445698 0.051899
vt 0.522332 0.015353
vt 0.750572 0.008715
vt 0.739251 0.120741
vt 0.708695 0.115150
vt 0.720718 0.003171
vt 0.741766 0.216078
vt 0.713782 0.220030
vt 0.851225 0.028632
vt 0.837781 0.140334
vt 0.807373 0.134031
vt 0.820835 0.022423
vt 0.773312 0.127386
vt 0.785703 0.015569
vt 0.835385 0.243754
vt 0.806270 0.228662
vt 0.774018 0.222370
vt 0.838230 0.379194
vt 0.812339 0.368838
vt 0.783489 0.363210
vt 0.841529 0.476824
vt 0.820463 0.472545
vt 0.796376 0.467846
vt 0.125000 0.687500
vt 0.187500 0.687500
vt 0.187500 0.750000
vt 0.125000 0.750000
vt 0.250000 0.687500
vt 0.250000 0.750000
vt 0.125000 0.500000
vt 0.187500 0.500000
vt 0.187500 0.562500
vt 0.125000 0.562500
vt 0.187500 0.625000
vt 0.125000 0.625000
vt 0.250000 0.500000
vt 0.250000 0.562500
vt 0.250000 0.625000
vt 0.312500 0.500000
vt 0.312500 0.562500
vt 0.312500 0.625000
vt 0.375000 0.500000
vt 0.375000 0.562500
vt 0.375000 0.625000
vt 0.966293 0.445659
vt 0.956542 0.343942
vt 0.987067 0.338233
vt 0.996829 0.440222
vt 0.957284 0.250537
vt 0.986667 0.236018
vt 0.865904 0.463436
vt 0.857567 0.361194
vt 0.888202 0.356059
vt 0.895804 0.458157
vt 0.922372 0.350000
vt 0.931048 0.451908
vt 0.864674 0.257649
vt 0.892574 0.262011
vt 0.924929 0.256274
vt 0.883122 0.119862
vt 0.907863 0.120681
vt 0.936806 0.115549
vt 0.906559 0.019177
vt 0.927362 0.015646
vt 0.951526 0.011362
vt 0.109277 0.003606
vt 0.104152 0.115717
vt 0.019060 0.105057
vt 0.030866 0.004325
vt 0.098924 0.267048
vt 0.012111 0.208740
vt 0.345711 0.003468
vt 0.349595 0.114443
vt 0.263969 0.120285
vt 0.267711 0.003171
vt 0.184061 0.118001
vt 0.188494 0.003388
vt 0.349593 0.219590
vt 0.259212 0.272201
vt 0.178649 0.282678
vt 0.349595 0.358799
vt 0.256062 0.407614
vt 0.173884 0.431119
vt 0.322524 0.459970
vt 0.248298 0.537498
vt 0.169412 0.570520
vt 0.791374 0.560049
vt 0.768611 0.540328
vt 0.247613 0.559156
vt 0.168733 0.591983
vt 0.768542 0.777991
vt 0.792960 0.764061
vt 0.851225 0.556446
vt 0.833631 0.568293
vt 0.812502 0.564171
vt 0.521924 0.003171
vt 0.600791 0.034909
vt 0.761313 0.826453
vt 0.728070 0.786641
vt 0.748306 0.782316
vt 0.782191 0.821990
vt 0.803069 0.817528
vt 0.714797 0.780768
vt 0.708696 0.698014
vt 0.723476 0.703565
vt 0.744354 0.699103
vt 0.714156 0.593640
vt 0.734632 0.587918
vt 0.758433 0.582830
vn -0.6956 0.6762 0.2427
vn -0.0465 0.4113 0.9103
vn -0.9537 0.1880 -0.2347
vn 0.0013 -1.0000 0.0033
vn 0.8907 0.3944 0.2259
vn 0.0711 -0.2315 -0.9702
vn 0.0376 -0.0905 -0.9952
vn 0.0645 -0.1771 -0.9821
vn 0.0559 -0.2118 -0.9757
vn -0.0339 -0.1001 -0.9944
vn 0.0018 -0.1114 -0.9938
vn 0.0018 -0.1090 -0.9940
vn -0.0515 -0.1827 -0.9818
vn 0.0032 -0.1883 -0.9821
vn 0.0098 -0.1877 -0.9822
vn -0.0404 -0.2153 -0.9757
vn -0.0004 -0.2185 -0.9758
vn 0.0163 -0.2179 -0.9758
vn -0.0541 -0.2361 -0.9702
vn -0.0176 -0.2727 -0.9619
vn 0.0374 -0.2707 -0.9619
vn 0.9760 -0.0411 0.2138
vn 0.9395 0.0786 0.3335
vn 0.9171 0.1148 0.3817
vn 0.9746 -0.0752 -0.2111
vn 0.9957 -0.0926 0.0000
vn 0.9433 -0.0571 -0.3270
vn 1.0000 -0.0024 0.0000
vn 0.9224 -0.0871 -0.3762
vn 1.0000 -0.0051 0.0000
vn 0.9375 0.2568 -0.2347
vn 0.9333 0.3591 0.0000
vn -0.0011 -1.0000 0.0030
vn 0.0000 -1.0000 0.0045
vn 0.0000 -1.0000 0.0046
vn -0.0011 -1.0000 -0.0029
vn -0.0016 -1.0000 0.0000
vn 0.0000 -1.0000 -0.0043
vn 0.0000 -1.0000 0.0000
vn 0.0000 -1.0000 -0.0044
vn 0.0013 -1.0000 -0.0031
vn 0.0018 -1.0000 0.0000
vn -0.9643 -0.1682 -0.2044
vn -0.9360 -0.1290 -0.3274
vn -0.9137 -0.1538 -0.3762
vn -0.9693 -0.1323 0.2074
vn -0.9816 -0.1912 0.0000
vn -0.9426 0.0086 0.3338
vn -0.9969 -0.0781 0.0000
vn -0.9231 0.0479 0.3817
vn -0.9970 -0.0777 0.0000
vn -0.9170 0.3286 0.2259
vn -0.9569 0.2904 0.0000
vn -0.0224 0.0904 0.9957
vn -0.0301 0.2516 0.9674
vn -0.0316 0.3209 0.9466
vn 0.0192 0.0860 0.9961
vn -0.0014 0.0876 0.9962
vn -0.0015 0.0895 0.9960
vn 0.0122 0.2514 0.9678
vn -0.0174 0.2639 0.9644
vn -0.0009 0.2650 0.9642
vn 0.0082 0.3223 0.9466
vn -0.0388 0.3543 0.9343
vn 0.0130 0.3562 0.9343
vn 0.0165 0.4136 0.9103
vn -0.0436 0.4187 0.9071
vn 0.0130 0.4207 0.9071
vn 0.6446 0.7249 0.2427
vn 0.2080 0.8473 0.4887
vn -0.2689 0.8299 0.4887
vn 0.7415 0.6137 -0.2711
vn 0.7484 0.6633 0.0000
vn 0.3625 0.6482 -0.6696
vn 0.3465 0.9380 0.0000
vn -0.4087 0.6202 -0.6696
vn -0.4137 0.9104 0.0000
vn -0.7841 0.5582 -0.2711
vn -0.7946 0.6072 0.0000
usemtl Material
s off
f 98/1/1 36/2/1 7/3/1 29/4/1
f 89/5/2 29/6/2 7/7/2 20/8/2
f 80/9/3 38/10/3 5/11/3 24/12/3
f 71/13/4 42/14/4 4/15/4 35/16/4
f 62/17/5 32/18/5 3/19/5 21/20/5
f 53/21/6 41/22/6 1/23/6 15/24/6
f 12/25/7 47/26/7 17/27/7 2/28/7
f 47/26/8 50/29/8 16/30/8 17/27/8
f 50/29/9 53/21/9 15/24/9 16/30/9
f 6/31/10 26/32/10 45/33/10 14/34/10
f 14/34/11 45/33/11 46/35/11 13/36/11
f 13/36/12 46/35/12 47/26/12 12/25/12
f 26/32/13 25/37/13 48/38/13 45/33/13
f 45/33/14 48/38/14 49/39/14 46/35/14
f 46/35/15 49/39/15 50/29/15 47/26/15
f 25/37/16 24/40/16 51/41/16 48/38/16
f 48/38/17 51/41/17 52/42/17 49/39/17
f 49/39/18 52/42/18 53/21/18 50/29/18
f 24/40/19 5/43/19 39/44/19 51/41/19
f 51/41/20 39/44/20 40/45/20 52/42/20
f 52/42/21 40/45/21 41/22/21 53/21/21
f 42/46/22 56/47/22 23/48/22 4/49/22
f 56/47/23 59/50/23 22/51/23 23/48/23
f 59/50/24 62/17/24 21/20/24 22/51/24
f 2/52/25 17/53/25 54/54/25 44/55/25
f 44/55/26 54/54/26 55/56/26 43/57/26
f 43/57/26 55/56/26 56/47/26 42/46/26
f 17/53/27 16/58/27 57/59/27 54/54/27
f 54/54/28 57/59/28 58/60/28 55/56/28
f 55/56/28 58/60/28 59/50/28 56/47/28
f 16/58/29 15/61/29 60/62/29 57/59/29
f 57/59/30 60/62/30 61/63/30 58/60/30
f 58/60/30 61/63/30 62/17/30 59/50/30
f 15/61/31 1/64/31 30/65/31 60/62/31
f 60/62/32 30/65/32 31/66/32 61/63/32
f 61/63/32 31/66/32 32/18/32 62/17/32
f 11/67/33 65/68/33 33/69/33 8/70/33
f 65/68/34 68/71/34 34/72/34 33/69/34
f 68/71/35 71/13/35 35/16/35 34/72/35
f 6/73/36 14/74/36 63/75/36 9/76/36
f 9/76/37 63/75/37 64/77/37 10/78/37
f 10/78/37 64/77/37 65/68/37 11/67/37
f 14/74/38 13/79/38 66/80/38 63/75/38
f 63/75/39 66/80/39 67/81/39 64/77/39
f 64/77/39 67/81/39 68/71/39 65/68/39
f 13/79/40 12/82/40 69/83/40 66/80/40
f 66/80/39 69/83/39 70/84/39 67/81/39
f 67/81/39 70/84/39 71/13/39 68/71/39
f 12/82/41 2/85/41 44/86/41 69/83/41
f 69/83/42 44/86/42 43/87/42 70/84/42
f 70/84/42 43/87/42 42/14/42 71/13/42
f 9/88/43 74/89/43 26/90/43 6/91/43
f 74/89/44 77/92/44 25/93/44 26/90/44
f 77/92/45 80/9/45 24/12/45 25/93/45
f 8/94/46 18/95/46 72/96/46 11/97/46
f 11/97/47 72/96/47 73/98/47 10/99/47
f 10/99/47 73/98/47 74/89/47 9/88/47
f 18/95/48 19/100/48 75/101/48 72/96/48
f 72/96/49 75/101/49 76/102/49 73/98/49
f 73/98/49 76/102/49 77/92/49 74/89/49
f 19/100/50 20/103/50 78/104/50 75/101/50
f 75/101/51 78/104/51 79/105/51 76/102/51
f 76/102/51 79/105/51 80/9/51 77/92/51
f 20/103/52 7/106/52 36/107/52 78/104/52
f 78/104/53 36/107/53 37/108/53 79/105/53
f 79/105/53 37/108/53 38/10/53 80/9/53
f 33/109/54 83/110/54 18/111/54 8/112/54
f 83/110/55 86/113/55 19/114/55 18/111/55
f 86/113/56 89/5/56 20/8/56 19/114/56
f 4/115/57 23/116/57 81/117/57 35/118/57
f 35/118/58 81/117/58 82/119/58 34/120/58
f 34/120/59 82/119/59 83/110/59 33/109/59
f 23/116/60 22/121/60 84/122/60 81/117/60
f 81/117/61 84/122/61 85/123/61 82/119/61
f 82/119/62 85/123/62 86/113/62 83/110/62
f 22/121/63 21/124/63 87/125/63 84/122/63
f 84/122/64 87/125/64 88/126/64 85/123/64
f 85/123/65 88/126/65 89/5/65 86/113/65
f 21/124/66 3/127/66 27/128/66 87/125/66
f 87/125/67 27/128/67 28/129/67 88/126/67
f 88/126/68 28/129/68 29/6/68 89/5/68
f 32/18/69 92/130/69 27/131/69 3/19/69
f 92/132/70 95/133/70 28/129/70 27/128/70
f 95/134/71 98/1/71 29/4/71 28/135/71
f 1/64/72 41/136/72 90/137/72 30/65/72
f 30/65/73 90/137/73 91/138/73 31/66/73
f 31/66/73 91/138/73 92/130/73 32/18/73
f 41/22/74 40/45/74 93/139/74 90/140/74
f 90/141/75 93/142/75 94/143/75 91/144/75
f 91/144/75 94/143/75 95/134/75 92/145/75
f 40/146/76 39/147/76 96/148/76 93/142/76
f 93/142/77 96/148/77 97/149/77 94/143/77
f 94/143/77 97/149/77 98/1/77 95/134/77
f 39/147/78 5/150/78 38/151/78 96/148/78
f 96/148/79 38/151/79 37/152/79 97/149/79
f 97/149/79 37/152/79 36/2/79 98/1/79
