# Blender v2.92.0 OBJ File: 'MIOS.blend'
# www.blender.org
mtllib vallamadera.mtl
o Cube.008_Cube.009
v -0.904702 -0.034461 0.116970
v -0.904702 1.965539 0.116970
v -0.904702 -0.034461 -0.116970
v -0.904702 1.965539 -0.116970
v -0.296718 -0.034461 0.116970
v -0.296718 1.965539 0.116970
v -0.296718 -0.034461 -0.116970
v -0.296718 1.965539 -0.116970
v -0.600710 -0.034461 -0.116970
v -0.600710 2.355135 -0.116970
v -0.600710 -0.034461 0.116970
v -0.600710 2.355135 0.116970
v -0.904702 1.313056 0.116970
v -0.904702 1.313056 -0.116970
v -0.296718 1.313056 -0.116970
v -0.296718 1.313056 0.116970
v -0.600710 1.313458 0.116970
v -0.600710 1.313458 -0.116970
v 0.305409 -0.034461 0.116970
v 0.305409 1.965539 0.116970
v 0.305409 -0.034461 -0.116970
v 0.305409 1.965539 -0.116970
v 0.913393 -0.034461 0.116970
v 0.913393 1.965539 0.116970
v 0.913393 -0.034461 -0.116970
v 0.913393 1.965539 -0.116970
v 0.609401 -0.034461 -0.116970
v 0.609401 2.355135 -0.116970
v 0.609401 -0.034461 0.116970
v 0.609401 2.355135 0.116970
v 0.305409 1.313056 0.116970
v 0.305409 1.313056 -0.116970
v 0.913393 1.313056 -0.116970
v 0.913393 1.313056 0.116970
v 0.609401 1.313458 0.116970
v 0.609401 1.313458 -0.116970
v -0.904702 1.355114 0.095038
v -0.904702 1.923481 0.095038
v -0.904702 1.923481 -0.095038
v -0.904702 1.355114 -0.095038
v -0.296718 1.355114 -0.095038
v -0.296718 1.923481 -0.095038
v -0.296718 1.923481 0.095038
v -0.296718 1.355114 0.095038
v 0.305409 1.355114 0.095038
v 0.305409 1.923481 0.095038
v 0.305409 1.923481 -0.095038
v 0.305409 1.355114 -0.095038
v 0.913393 1.355114 -0.095038
v 0.913393 1.923481 -0.095038
v 0.913393 1.923481 0.095038
v 0.913393 1.355114 0.095038
v 1.283469 1.923481 -0.095038
v 1.283469 1.355114 -0.095038
v 1.283469 1.355114 0.095038
v 1.283469 1.923481 0.095038
v -1.335620 1.355114 0.095038
v -1.335620 1.923481 0.095038
v -1.335620 1.355114 -0.095038
v -1.335620 1.923481 -0.095038
v -0.904702 1.639297 0.116970
v -0.904702 1.639297 -0.116970
v -0.296718 1.639297 -0.116970
v -0.296718 1.639297 0.116970
v -0.600710 1.834297 0.116970
v -0.600710 1.834297 -0.116970
v 0.305409 1.639297 0.116970
v 0.305409 1.639297 -0.116970
v 0.913393 1.639297 -0.116970
v 0.913393 1.639297 0.116970
v 0.609401 1.834297 0.116970
v 0.609401 1.834297 -0.116970
v -0.904702 1.639297 0.095038
v -0.904702 1.639297 -0.095038
v -0.296718 1.639297 -0.095038
v -0.296718 1.639297 0.095038
v 0.305409 1.639297 0.095038
v 0.305409 1.639297 -0.095038
v 0.913393 1.639297 -0.095038
v 0.913393 1.639297 0.095038
v 1.513685 1.639297 -0.095038
v 1.513685 1.639297 0.095038
v -1.565836 1.639297 0.095038
v -1.565836 1.639297 -0.095038
vt 0.843121 0.711333
vt 0.843121 0.916016
vt 0.675198 0.916016
vt 0.675198 0.711333
vt 0.333658 0.324402
vt 0.333658 0.270581
vt 0.436995 0.310840
vt 0.436995 0.344553
vt 0.927003 0.212565
vt 0.897637 0.212565
vt 0.897637 0.007882
vt 0.927003 0.007882
vt 0.111219 0.324402
vt 0.111219 0.270581
vt 0.214556 0.310840
vt 0.214556 0.344553
vt 0.250000 0.500000
vt 0.375000 0.500000
vt 0.375000 0.750000
vt 0.250000 0.750000
vt 0.778535 0.007882
vt 0.881872 0.007882
vt 0.881872 0.214556
vt 0.778535 0.214556
vt 0.675198 0.007882
vt 0.675198 0.214556
vt 0.125000 0.500000
vt 0.125000 0.750000
vt 0.007882 0.344553
vt 0.007882 0.310840
vt 0.230321 0.344553
vt 0.230321 0.310840
vt 0.230321 0.517514
vt 0.230321 0.378266
vt 0.333658 0.378224
vt 0.333658 0.517514
vt 0.007882 0.517514
vt 0.007882 0.378266
vt 0.111219 0.378224
vt 0.111219 0.517514
vt 0.214556 0.378266
vt 0.214556 0.517514
vt 0.214556 0.533279
vt 0.214556 0.672527
vt 0.007882 0.672527
vt 0.007882 0.533279
vt 0.436995 0.378266
vt 0.436995 0.517514
vt 0.659433 0.230321
vt 0.659433 0.369569
vt 0.452760 0.369569
vt 0.452760 0.230321
vt 0.620683 0.879880
vt 0.452760 0.879880
vt 0.452760 0.675198
vt 0.620683 0.675198
vt 0.111219 0.061704
vt 0.111219 0.007882
vt 0.214556 0.048142
vt 0.214556 0.081855
vt 0.888253 0.711333
vt 0.917619 0.711333
vt 0.917619 0.916016
vt 0.888253 0.916016
vt 0.333658 0.061704
vt 0.333658 0.007882
vt 0.436995 0.048142
vt 0.436995 0.081855
vt 0.250000 0.500000
vt 0.375000 0.500000
vt 0.375000 0.750000
vt 0.250000 0.750000
vt 0.556097 0.007882
vt 0.659433 0.007882
vt 0.659433 0.214556
vt 0.556097 0.214556
vt 0.452760 0.007882
vt 0.452760 0.214556
vt 0.125000 0.500000
vt 0.125000 0.750000
vt 0.230321 0.081855
vt 0.230321 0.048142
vt 0.007882 0.081855
vt 0.007882 0.048142
vt 0.007882 0.254816
vt 0.007882 0.115568
vt 0.111219 0.115526
vt 0.111219 0.254816
vt 0.230321 0.254816
vt 0.230321 0.115568
vt 0.333658 0.115526
vt 0.333658 0.254816
vt 0.436995 0.115568
vt 0.436995 0.254816
vt 0.436995 0.533279
vt 0.436995 0.672527
vt 0.230321 0.672527
vt 0.230321 0.533279
vt 0.214556 0.115568
vt 0.214556 0.254816
vt 0.659433 0.452760
vt 0.659433 0.592008
vt 0.452760 0.592008
vt 0.452760 0.452760
vt 0.659433 0.403282
vt 0.659433 0.436995
vt 0.640058 0.432649
vt 0.640058 0.403282
vt 0.452760 0.436995
vt 0.472135 0.432649
vt 0.452760 0.403282
vt 0.472135 0.373915
vt 0.472135 0.403282
vt 0.640058 0.373915
vt 0.214556 0.706240
vt 0.214556 0.739953
vt 0.195181 0.735606
vt 0.195181 0.706240
vt 0.007882 0.739953
vt 0.027258 0.735606
vt 0.007882 0.706240
vt 0.027258 0.676873
vt 0.027258 0.706240
vt 0.195181 0.676873
vt 0.659433 0.625720
vt 0.659433 0.659433
vt 0.640058 0.655087
vt 0.640058 0.625720
vt 0.452760 0.659433
vt 0.472135 0.655087
vt 0.452760 0.625720
vt 0.472135 0.596354
vt 0.472135 0.625720
vt 0.640058 0.596354
vt 0.436995 0.706240
vt 0.436995 0.739953
vt 0.417619 0.735606
vt 0.417619 0.706240
vt 0.230321 0.739953
vt 0.249696 0.735606
vt 0.230321 0.706240
vt 0.249696 0.676873
vt 0.249696 0.706240
vt 0.417619 0.676873
vt 0.962751 0.434380
vt 0.933384 0.434380
vt 0.933384 0.308579
vt 0.962751 0.230321
vt 0.675198 0.230321
vt 0.843121 0.230321
vt 0.843121 0.376804
vt 0.675198 0.376804
vt 0.175806 0.755717
vt 0.175806 0.833975
vt 0.007882 0.833975
vt 0.007882 0.755717
vt 0.404625 0.959776
vt 0.375258 0.959776
vt 0.375258 0.833975
vt 0.404625 0.755717
vt 0.191570 0.755718
vt 0.359493 0.755718
vt 0.359493 0.881518
vt 0.191570 0.881518
vt 0.175806 0.959776
vt 0.007882 0.959776
vt 0.675198 0.455062
vt 0.843121 0.455062
vt 0.888253 0.455062
vt 0.858886 0.455062
vt 0.858886 0.308579
vt 0.888253 0.230321
vt 0.888253 0.695568
vt 0.858886 0.695568
vt 0.858886 0.549085
vt 0.888253 0.470827
vt 0.843121 0.695568
vt 0.675198 0.695568
vt 0.675198 0.549085
vt 0.843121 0.549085
vt 0.917619 0.695568
vt 0.917619 0.549085
vt 0.917619 0.455062
vt 0.917619 0.308579
vt 0.675198 0.470827
vt 0.843121 0.470827
vt 0.433992 0.959776
vt 0.433992 0.833975
vt 0.359493 0.959776
vt 0.191570 0.959776
vt 0.992118 0.434380
vt 0.992118 0.308579
vt 0.858886 0.711333
vt 0.858886 0.916016
vt 0.956370 0.212565
vt 0.956370 0.007882
vn 0.0000 -1.0000 0.0000
vn -0.0000 0.0000 -1.0000
vn 0.0000 0.0000 1.0000
vn -0.7884 0.6152 0.0000
vn 0.7884 0.6152 0.0000
vn 1.0000 0.0000 0.0000
vn -1.0000 0.0000 0.0000
vn 0.0000 1.0000 0.0000
vn 0.7770 0.6295 0.0000
vn -0.7770 0.6295 0.0000
vn -0.7770 -0.6295 0.0000
vn 0.7770 -0.6295 0.0000
usemtl None
s off
f 41/1/1 48/2/1 45/3/1 44/4/1
f 66/5/2 10/6/2 8/7/2 63/8/2
f 75/9/2 42/10/2 47/11/2 78/12/2
f 65/13/3 12/14/3 2/15/3 61/16/3
f 9/17/1 7/18/1 5/19/1 11/20/1
f 10/21/4 4/22/4 2/23/4 12/24/4
f 8/25/5 10/21/5 12/24/5 6/26/5
f 3/27/1 9/17/1 11/20/1 1/28/1
f 64/29/3 6/30/3 12/14/3 65/13/3
f 62/31/2 4/32/2 10/6/2 66/5/2
f 3/33/2 14/34/2 18/35/2 9/36/2
f 5/37/3 16/38/3 17/39/3 11/40/3
f 11/40/3 17/39/3 13/41/3 1/42/3
f 7/43/6 15/44/6 16/45/6 5/46/6
f 9/36/2 18/35/2 15/47/2 7/48/2
f 1/49/7 13/50/7 14/51/7 3/52/7
f 42/53/8 43/54/8 46/55/8 47/56/8
f 72/57/2 28/58/2 26/59/2 69/60/2
f 76/61/3 44/62/3 45/63/3 77/64/3
f 71/65/3 30/66/3 20/67/3 67/68/3
f 27/69/1 25/70/1 23/71/1 29/72/1
f 28/73/4 22/74/4 20/75/4 30/76/4
f 26/77/5 28/73/5 30/76/5 24/78/5
f 21/79/1 27/69/1 29/72/1 19/80/1
f 70/81/3 24/82/3 30/66/3 71/65/3
f 68/83/2 22/84/2 28/58/2 72/57/2
f 21/85/2 32/86/2 36/87/2 27/88/2
f 23/89/3 34/90/3 35/91/3 29/92/3
f 29/92/3 35/91/3 31/93/3 19/94/3
f 25/95/6 33/96/6 34/97/6 23/98/6
f 27/88/2 36/87/2 33/99/2 25/100/2
f 19/101/7 31/102/7 32/103/7 21/104/7
f 61/105/7 2/106/7 38/107/7 73/108/7
f 2/106/7 4/109/7 39/110/7 38/107/7
f 62/111/7 14/51/7 40/112/7 74/113/7
f 14/51/7 13/50/7 37/114/7 40/112/7
f 63/115/6 8/116/6 42/117/6 75/118/6
f 8/116/6 6/119/6 43/120/6 42/117/6
f 64/121/6 16/45/6 44/122/6 76/123/6
f 16/45/6 15/44/6 41/124/6 44/122/6
f 67/125/7 20/126/7 46/127/7 77/128/7
f 20/126/7 22/129/7 47/130/7 46/127/7
f 68/131/7 32/103/7 48/132/7 78/133/7
f 32/103/7 31/102/7 45/134/7 48/132/7
f 69/135/6 26/136/6 50/137/6 79/138/6
f 26/136/6 24/139/6 51/140/6 50/137/6
f 70/141/6 34/97/6 52/142/6 80/143/6
f 34/97/6 33/96/6 49/144/6 52/142/6
f 79/145/2 50/146/2 53/147/2 81/148/2
f 38/149/8 39/150/8 60/151/8 58/152/8
f 81/153/9 53/154/9 56/155/9 82/156/9
f 80/157/3 52/158/3 55/159/3 82/160/3
f 52/161/1 49/162/1 54/163/1 55/164/1
f 50/165/8 51/166/8 56/155/8 53/154/8
f 83/167/10 58/152/10 60/151/10 84/168/10
f 73/169/3 38/170/3 58/171/3 83/172/3
f 74/173/2 40/174/2 59/175/2 84/176/2
f 40/177/1 37/178/1 57/179/1 59/180/1
f 39/181/2 74/173/2 84/176/2 60/182/2
f 37/183/3 73/169/3 83/172/3 57/184/3
f 57/179/11 83/185/11 84/186/11 59/180/11
f 51/187/3 80/157/3 82/160/3 56/188/3
f 54/163/12 81/189/12 82/190/12 55/164/12
f 49/191/2 79/145/2 81/148/2 54/192/2
f 24/139/6 70/141/6 80/143/6 51/140/6
f 33/96/6 69/135/6 79/138/6 49/144/6
f 22/129/7 68/131/7 78/133/7 47/130/7
f 31/102/7 67/125/7 77/128/7 45/134/7
f 6/119/6 64/121/6 76/123/6 43/120/6
f 15/44/6 63/115/6 75/118/6 41/124/6
f 4/109/7 62/111/7 74/113/7 39/110/7
f 13/50/7 61/105/7 73/108/7 37/114/7
f 32/86/2 68/83/2 72/57/2 36/87/2
f 34/90/3 70/81/3 71/65/3 35/91/3
f 35/91/3 71/65/3 67/68/3 31/93/3
f 43/193/3 76/61/3 77/64/3 46/194/3
f 36/87/2 72/57/2 69/60/2 33/99/2
f 14/34/2 62/31/2 66/5/2 18/35/2
f 16/38/3 64/29/3 65/13/3 17/39/3
f 17/39/3 65/13/3 61/16/3 13/41/3
f 41/195/2 75/9/2 78/12/2 48/196/2
f 18/35/2 66/5/2 63/8/2 15/47/2
