# Blender v2.92.0 OBJ File: 'MIOS.blend'
# www.blender.org
mtllib vallametal.mtl
o Cube.009_Cube.010
v -0.541405 -0.011624 0.032713
v -0.513640 2.377493 0.039568
v -0.541405 -0.011624 -0.032713
v -0.513640 2.377493 -0.039568
v -0.594875 -0.011624 0.032713
v -0.622639 2.377493 0.039568
v -0.594875 -0.011624 -0.032713
v -0.622639 2.377493 -0.039568
v -0.513640 2.352333 0.039568
v -0.513640 2.352333 -0.039568
v -0.622639 2.352333 -0.039568
v -0.622639 2.352333 0.039568
v -0.568140 -0.011624 -0.032713
v -0.568140 2.497053 -0.039568
v -0.568140 -0.011624 0.032713
v -0.568140 2.497053 0.039568
v -0.568140 2.352333 0.039568
v -0.568140 2.352333 -0.039568
v -0.541405 2.330165 -0.032713
v -0.594875 2.330165 -0.032713
v -0.594875 2.330165 0.032713
v -0.541405 2.330165 0.032713
v -0.568140 2.330165 -0.032713
v -0.568140 2.330165 0.032713
v -0.541405 1.976381 -0.032713
v -0.594875 1.976381 -0.032713
v -0.594875 1.976381 0.032713
v -0.568140 1.976381 -0.032713
v -0.568140 1.976381 0.032713
v -0.541405 1.976381 0.032713
v -0.541405 2.036142 0.032713
v -0.541405 2.036142 -0.032713
v -0.594875 2.036142 -0.032713
v -0.594875 2.036142 0.032713
v -0.568140 2.036142 -0.032713
v -0.568140 2.036142 0.032713
v -0.172468 -0.011624 0.032713
v -0.144704 2.377493 0.039568
v -0.172468 -0.011624 -0.032713
v -0.144704 2.377493 -0.039568
v -0.225938 -0.011624 0.032713
v -0.253702 2.377493 0.039568
v -0.225938 -0.011624 -0.032713
v -0.253702 2.377493 -0.039568
v -0.144704 2.352333 0.039568
v -0.144704 2.352333 -0.039568
v -0.253702 2.352333 -0.039568
v -0.253702 2.352333 0.039568
v -0.199203 -0.011624 -0.032713
v -0.199203 2.497053 -0.039568
v -0.199203 -0.011624 0.032713
v -0.199203 2.497053 0.039568
v -0.199203 2.352333 0.039568
v -0.199203 2.352333 -0.039568
v -0.172468 2.330165 -0.032713
v -0.225938 2.330165 -0.032713
v -0.225938 2.330165 0.032713
v -0.172468 2.330165 0.032713
v -0.199203 2.330165 -0.032713
v -0.199203 2.330165 0.032713
v -0.172468 1.976381 -0.032713
v -0.225938 1.976381 -0.032713
v -0.225938 1.976381 0.032713
v -0.199203 1.976381 -0.032713
v -0.199203 1.976381 0.032713
v -0.172468 1.976381 0.032713
v -0.172468 2.036142 0.032713
v -0.172468 2.036142 -0.032713
v -0.225938 2.036142 -0.032713
v -0.225938 2.036142 0.032713
v -0.199203 2.036142 -0.032713
v -0.199203 2.036142 0.032713
v 0.208767 -0.011624 0.032713
v 0.236531 2.377493 0.039568
v 0.208767 -0.011624 -0.032713
v 0.236531 2.377493 -0.039568
v 0.155297 -0.011624 0.032713
v 0.127533 2.377493 0.039568
v 0.155297 -0.011624 -0.032713
v 0.127533 2.377493 -0.039568
v 0.236531 2.352333 0.039568
v 0.236531 2.352333 -0.039568
v 0.127533 2.352333 -0.039568
v 0.127533 2.352333 0.039568
v 0.182032 -0.011624 -0.032713
v 0.182032 2.497053 -0.039568
v 0.182032 -0.011624 0.032713
v 0.182032 2.497053 0.039568
v 0.182032 2.352333 0.039568
v 0.182032 2.352333 -0.039568
v 0.208767 2.330165 -0.032713
v 0.155297 2.330165 -0.032713
v 0.155297 2.330165 0.032713
v 0.208767 2.330165 0.032713
v 0.182032 2.330165 -0.032713
v 0.182032 2.330165 0.032713
v 0.208767 1.976381 -0.032713
v 0.155297 1.976381 -0.032713
v 0.155297 1.976381 0.032713
v 0.182032 1.976381 -0.032713
v 0.182032 1.976381 0.032713
v 0.208767 1.976381 0.032713
v 0.208767 2.036142 0.032713
v 0.208767 2.036142 -0.032713
v 0.155297 2.036142 -0.032713
v 0.155297 2.036142 0.032713
v 0.182032 2.036142 -0.032713
v 0.182032 2.036142 0.032713
v 0.610499 -0.011624 0.032713
v 0.638263 2.377493 0.039568
v 0.610499 -0.011624 -0.032713
v 0.638263 2.377493 -0.039568
v 0.557028 -0.011624 0.032713
v 0.529264 2.377493 0.039568
v 0.557028 -0.011624 -0.032713
v 0.529264 2.377493 -0.039568
v 0.638263 2.352333 0.039568
v 0.638263 2.352333 -0.039568
v 0.529264 2.352333 -0.039568
v 0.529264 2.352333 0.039568
v 0.583763 -0.011624 -0.032713
v 0.583763 2.497053 -0.039568
v 0.583763 -0.011624 0.032713
v 0.583763 2.497053 0.039568
v 0.583763 2.352333 0.039568
v 0.583763 2.352333 -0.039568
v 0.610499 2.330165 -0.032713
v 0.557028 2.330165 -0.032713
v 0.557028 2.330165 0.032713
v 0.610499 2.330165 0.032713
v 0.583763 2.330165 -0.032713
v 0.583763 2.330165 0.032713
v 0.610499 1.976381 -0.032713
v 0.557028 1.976381 -0.032713
v 0.557028 1.976381 0.032713
v 0.583763 1.976381 -0.032713
v 0.583763 1.976381 0.032713
v 0.610499 1.976381 0.032713
v 0.610499 2.036142 0.032713
v 0.610499 2.036142 -0.032713
v 0.557028 2.036142 -0.032713
v 0.557028 2.036142 0.032713
v 0.583763 2.036142 -0.032713
v 0.583763 2.036142 0.032713
v 0.752759 2.036142 -0.032713
v 0.752759 1.976381 -0.032713
v 0.752759 1.976381 0.032713
v 0.752759 2.036142 0.032713
v -0.738833 2.036142 -0.032713
v -0.738833 1.976381 -0.032713
v -0.738833 2.036142 0.032713
v -0.738833 1.976381 0.032713
vt 0.724597 0.242873
vt 0.724597 0.240483
vt 0.721809 0.240483
vt 0.721809 0.242873
vt 0.483240 0.170474
vt 0.483240 0.207012
vt 0.486024 0.207012
vt 0.499255 0.170474
vt 0.696129 0.242873
vt 0.696129 0.240483
vt 0.693341 0.240483
vt 0.693341 0.242873
vt 0.406515 0.170474
vt 0.406515 0.207012
vt 0.409300 0.207012
vt 0.422530 0.170474
vt 0.269416 0.231936
vt 0.262166 0.231936
vt 0.262166 0.249860
vt 0.269416 0.249860
vt 0.965551 0.196689
vt 0.956781 0.196689
vt 0.956781 0.233227
vt 0.965551 0.233227
vt 0.404022 0.170474
vt 0.404022 0.188398
vt 0.368966 0.214012
vt 0.361716 0.214012
vt 0.360956 0.232626
vt 0.369726 0.232626
vt 0.480747 0.170474
vt 0.480747 0.188398
vt 0.610112 0.214012
vt 0.602861 0.214012
vt 0.602102 0.232626
vt 0.610871 0.232626
vt 0.480747 0.152550
vt 0.483240 0.133937
vt 0.404022 0.152550
vt 0.406515 0.133937
vt 0.965551 0.160151
vt 0.956781 0.160151
vt 0.269416 0.214012
vt 0.262166 0.214012
vt 0.409300 0.133937
vt 0.486024 0.133937
vt 0.371485 0.152550
vt 0.371485 0.170474
vt 0.448210 0.152550
vt 0.448210 0.170474
vt 0.766451 0.226742
vt 0.759201 0.226742
vt 0.759201 0.235623
vt 0.766451 0.235623
vt 0.448210 0.188398
vt 0.865241 0.218497
vt 0.857991 0.218497
vt 0.857991 0.227378
vt 0.865241 0.227378
vt 0.371485 0.188398
vt 0.287529 0.066969
vt 0.221775 0.066969
vt 0.221775 0.126937
vt 0.287529 0.126937
vt 0.071836 0.214012
vt 0.064586 0.214012
vt 0.064586 0.274064
vt 0.071836 0.274064
vt 0.130341 0.066969
vt 0.064586 0.066969
vt 0.064586 0.126937
vt 0.130341 0.126937
vt 0.998481 0.147128
vt 0.991230 0.147128
vt 0.991230 0.207180
vt 0.998481 0.207180
vt 0.196095 0.066969
vt 0.196095 0.126937
vt 0.353284 0.066969
vt 0.353284 0.126937
vt 0.038906 0.885563
vt 0.038906 0.867639
vt 0.032293 0.867639
vt 0.032293 0.885563
vt 0.099616 0.170473
vt 0.099616 0.207013
vt 0.102401 0.207013
vt 0.115631 0.170473
vt 0.006613 0.114438
vt 0.006613 0.096514
vt 0.000000 0.096514
vt 0.000000 0.114438
vt 0.176341 0.170474
vt 0.176341 0.207012
vt 0.179125 0.207012
vt 0.192356 0.170474
vt 0.006613 0.132361
vt 0.000000 0.132361
vt 0.038906 0.903487
vt 0.032293 0.903487
vt 0.432643 0.242016
vt 0.432643 0.239626
vt 0.429855 0.239626
vt 0.429855 0.242016
vt 0.253066 0.170474
vt 0.253066 0.207012
vt 0.255850 0.207012
vt 0.269081 0.170474
vt 0.461111 0.242016
vt 0.461111 0.239626
vt 0.458323 0.239626
vt 0.458323 0.242016
vt 0.329791 0.170474
vt 0.329791 0.207012
vt 0.332575 0.207012
vt 0.345805 0.170474
vt 0.302346 0.231937
vt 0.295096 0.231937
vt 0.295096 0.249861
vt 0.302346 0.249861
vt 0.965550 0.116614
vt 0.956781 0.116614
vt 0.956781 0.153151
vt 0.965550 0.153151
vt 0.327297 0.170474
vt 0.327297 0.188398
vt 0.403415 0.214012
vt 0.396165 0.214012
vt 0.395405 0.232626
vt 0.404175 0.232626
vt 0.250573 0.170474
vt 0.250573 0.188398
vt 0.541213 0.214013
vt 0.533963 0.214013
vt 0.533203 0.232626
vt 0.541972 0.232626
vt 0.250573 0.152550
vt 0.253066 0.133937
vt 0.327297 0.152550
vt 0.329791 0.133937
vt 0.965550 0.080076
vt 0.956781 0.080076
vt 0.302346 0.214013
vt 0.295096 0.214013
vt 0.332575 0.133937
vt 0.255850 0.133937
vt 0.294761 0.152550
vt 0.294761 0.170474
vt 0.218036 0.152550
vt 0.218036 0.170474
vt 0.832311 0.234378
vt 0.825061 0.234378
vt 0.825061 0.243260
vt 0.832311 0.243260
vt 0.218036 0.188398
vt 0.865241 0.234378
vt 0.857991 0.234378
vt 0.857991 0.243260
vt 0.865241 0.243260
vt 0.294761 0.188398
vt 0.444722 0.000000
vt 0.378967 0.000000
vt 0.378967 0.059969
vt 0.444722 0.059969
vt 0.137696 0.214012
vt 0.130446 0.214012
vt 0.130446 0.274064
vt 0.137696 0.274064
vt 0.444718 0.066969
vt 0.378964 0.066969
vt 0.378964 0.126937
vt 0.444718 0.126937
vt 0.104766 0.214012
vt 0.097516 0.214012
vt 0.097516 0.274064
vt 0.104766 0.274064
vt 0.510473 0.066969
vt 0.510473 0.126937
vt 0.510476 0.000000
vt 0.510476 0.059969
vt 0.038906 0.638219
vt 0.038906 0.620295
vt 0.032293 0.620295
vt 0.032293 0.638219
vt 0.564459 0.242016
vt 0.564459 0.239626
vt 0.561671 0.239626
vt 0.561671 0.242016
vt 0.006613 0.361782
vt 0.006613 0.343858
vt 0.000000 0.343858
vt 0.000000 0.361782
vt 0.535991 0.242016
vt 0.535991 0.239626
vt 0.533203 0.239626
vt 0.533203 0.242016
vt 0.006613 0.379705
vt 0.000000 0.379705
vt 0.038906 0.656143
vt 0.032293 0.656143
vt 0.965551 0.036538
vt 0.956781 0.036538
vt 0.956781 0.073076
vt 0.965551 0.073076
vt 0.173848 0.170474
vt 0.173848 0.188398
vt 0.437865 0.214012
vt 0.430615 0.214012
vt 0.429855 0.232625
vt 0.438624 0.232625
vt 0.097123 0.170473
vt 0.097123 0.188397
vt 0.575662 0.214012
vt 0.568412 0.214012
vt 0.567652 0.232625
vt 0.576422 0.232625
vt 0.097123 0.152550
vt 0.099616 0.133936
vt 0.173848 0.152550
vt 0.176341 0.133937
vt 0.965551 0.000001
vt 0.956781 0.000001
vt 0.179125 0.133937
vt 0.102401 0.133936
vt 0.141311 0.152550
vt 0.141311 0.170474
vt 0.064586 0.152550
vt 0.064586 0.170473
vt 0.643801 0.229894
vt 0.636551 0.229894
vt 0.636551 0.238775
vt 0.643801 0.238775
vt 0.064586 0.188397
vt 0.799381 0.226742
vt 0.792131 0.226742
vt 0.792131 0.235623
vt 0.799381 0.235623
vt 0.141311 0.188398
vt 0.130338 0.000000
vt 0.064583 0.000000
vt 0.064583 0.059969
vt 0.130338 0.059969
vt 0.203556 0.214012
vt 0.196306 0.214012
vt 0.196306 0.274064
vt 0.203556 0.274064
vt 0.287530 0.000000
vt 0.221775 0.000000
vt 0.221775 0.059969
vt 0.287530 0.059969
vt 0.898171 0.207027
vt 0.890921 0.207027
vt 0.890921 0.267079
vt 0.898171 0.267079
vt 0.353284 0.000000
vt 0.353284 0.059969
vt 0.196092 0.000000
vt 0.196092 0.059969
vt 0.038906 0.382630
vt 0.038906 0.364706
vt 0.032293 0.364706
vt 0.032293 0.382630
vt 0.006613 0.617370
vt 0.006613 0.599447
vt 0.000000 0.599447
vt 0.000000 0.617370
vt 0.006613 0.635294
vt 0.000000 0.635294
vt 0.038906 0.400554
vt 0.032293 0.400554
vt 0.636690 0.170473
vt 0.636690 0.207013
vt 0.639474 0.207013
vt 0.652704 0.170473
vt 0.559965 0.170473
vt 0.559965 0.207013
vt 0.562749 0.207013
vt 0.575980 0.170473
vt 0.501541 0.242016
vt 0.501541 0.239626
vt 0.498753 0.239626
vt 0.498753 0.242016
vt 0.592927 0.242016
vt 0.592927 0.239626
vt 0.590138 0.239626
vt 0.590138 0.242016
vt 1.000000 0.036537
vt 0.991230 0.036537
vt 0.991230 0.073077
vt 1.000000 0.073077
vt 0.557472 0.170473
vt 0.557472 0.188397
vt 0.472314 0.214012
vt 0.465064 0.214012
vt 0.464304 0.232625
vt 0.473074 0.232625
vt 0.634196 0.170473
vt 0.634196 0.188397
vt 0.506763 0.214012
vt 0.499513 0.214012
vt 0.498753 0.232625
vt 0.507523 0.232625
vt 0.634196 0.152550
vt 0.636690 0.133936
vt 0.557472 0.152550
vt 0.559965 0.133936
vt 1.000000 0.000000
vt 0.991230 0.000000
vt 0.562749 0.133936
vt 0.639474 0.133936
vt 0.524935 0.152550
vt 0.524935 0.170473
vt 0.601660 0.152550
vt 0.601660 0.170473
vt 0.643801 0.214012
vt 0.636551 0.214012
vt 0.636551 0.222894
vt 0.643801 0.222894
vt 0.601660 0.188397
vt 0.832311 0.218497
vt 0.825061 0.218497
vt 0.825061 0.227378
vt 0.832311 0.227378
vt 0.524935 0.188397
vt 0.601907 0.066969
vt 0.536152 0.066969
vt 0.536152 0.126937
vt 0.601907 0.126937
vt 0.998481 0.080076
vt 0.991230 0.080076
vt 0.991230 0.140128
vt 0.998481 0.140128
vt 0.601907 0.000000
vt 0.536152 0.000000
vt 0.536152 0.059969
vt 0.601907 0.059969
vt 0.170626 0.214012
vt 0.163376 0.214012
vt 0.163376 0.274064
vt 0.170626 0.274064
vt 0.667661 0.000000
vt 0.667661 0.059969
vt 0.667661 0.066969
vt 0.667661 0.126937
vt 0.038906 0.113298
vt 0.038906 0.095376
vt 0.032293 0.095376
vt 0.032293 0.113298
vt 0.006613 0.886701
vt 0.006613 0.868777
vt 0.000000 0.868777
vt 0.000000 0.886701
vt 0.006613 0.904625
vt 0.000000 0.904625
vt 0.038906 0.131222
vt 0.032293 0.131222
vt 0.000000 1.000000
vt 0.006613 1.000000
vt 0.360956 0.239626
vt 0.360956 0.241602
vt 0.367579 0.241602
vt 0.367579 0.239626
vt 0.931101 0.197751
vt 0.931101 0.102375
vt 0.923851 0.102375
vt 0.923851 0.197751
vt 0.038906 0.000000
vt 0.032293 0.000000
vt 0.923851 0.000000
vt 0.923851 0.095376
vt 0.931101 0.095376
vt 0.931101 0.000000
vt 0.693341 0.000000
vt 0.693341 0.233482
vt 0.700591 0.233482
vt 0.700591 0.000000
vt 0.733521 0.233482
vt 0.733521 0.000000
vt 0.726271 0.000000
vt 0.726271 0.233482
vt 0.792131 0.000001
vt 0.792131 0.219741
vt 0.799381 0.219741
vt 0.799381 0.000001
vt 0.766451 0.219741
vt 0.766451 0.000000
vt 0.759201 0.000000
vt 0.759201 0.219741
vt 0.825061 0.000001
vt 0.825061 0.211497
vt 0.832311 0.211497
vt 0.832311 0.000001
vt 0.857991 0.211497
vt 0.865241 0.211497
vt 0.865241 0.000000
vt 0.857991 0.000000
vt 0.898171 0.096514
vt 0.898171 0.000000
vt 0.890921 0.000000
vt 0.890921 0.096514
vt 0.399881 0.241602
vt 0.399881 0.239626
vt 0.393258 0.239626
vt 0.393258 0.241602
vt 0.032293 1.000000
vt 0.038906 1.000000
vt 0.890921 0.103514
vt 0.890921 0.200027
vt 0.898171 0.200027
vt 0.898171 0.103514
vt 0.006613 0.000000
vt 0.000000 0.000000
vt 0.229236 0.214013
vt 0.229236 0.231937
vt 0.236486 0.231937
vt 0.236486 0.214013
vt 0.229236 0.249861
vt 0.236486 0.249861
vt 0.328026 0.214012
vt 0.328026 0.231936
vt 0.335276 0.231936
vt 0.335276 0.214012
vt 0.328026 0.249860
vt 0.335276 0.249860
vn 1.0000 0.0000 0.0000
vn 0.0000 0.0000 -1.0000
vn -1.0000 0.0000 0.0000
vn -0.0000 0.0000 1.0000
vn 0.0000 -1.0000 0.0000
vn 0.9099 0.4148 0.0000
vn 0.0000 -0.2955 0.9554
vn -0.6239 -0.7815 0.0000
vn 0.0000 -0.2954 -0.9554
vn 0.6239 -0.7815 0.0000
vn 0.0000 -0.2955 -0.9554
vn 0.0000 -0.2954 0.9554
vn -0.9099 0.4148 0.0000
vn 0.0000 1.0000 0.0000
usemtl None
s off
f 9/1/1 10/2/1 4/3/1 2/4/1
f 18/5/2 11/6/2 8/7/2 14/8/2
f 11/9/3 12/10/3 6/11/3 8/12/3
f 17/13/4 9/14/4 2/15/4 16/16/4
f 13/17/5 15/18/5 5/19/5 7/20/5
f 14/21/6 16/22/6 2/23/6 4/24/6
f 24/25/7 22/26/7 9/14/7 17/13/7
f 20/27/8 21/28/8 12/29/8 11/30/8
f 23/31/9 20/32/9 11/6/9 18/5/9
f 22/33/10 19/34/10 10/35/10 9/36/10
f 19/37/11 23/31/11 18/5/11 10/38/11
f 21/39/12 24/25/12 17/13/12 12/40/12
f 8/41/13 6/42/13 16/22/13 14/21/13
f 3/43/5 1/44/5 15/18/5 13/17/5
f 12/40/4 17/13/4 16/16/4 6/45/4
f 10/38/2 18/5/2 14/8/2 4/46/2
f 34/47/4 36/48/4 24/25/4 21/39/4
f 32/49/2 35/50/2 23/31/2 19/37/2
f 31/51/1 32/52/1 19/53/1 22/54/1
f 35/50/2 33/55/2 20/32/2 23/31/2
f 33/56/3 34/57/3 21/58/3 20/59/3
f 36/48/4 31/60/4 22/26/4 24/25/4
f 15/61/4 1/62/4 30/63/4 29/64/4
f 7/65/3 5/66/3 27/67/3 26/68/3
f 13/69/2 7/70/2 26/71/2 28/72/2
f 1/73/1 3/74/1 25/75/1 30/76/1
f 3/77/2 13/69/2 28/72/2 25/78/2
f 5/79/4 15/61/4 29/64/4 27/80/4
f 29/81/4 30/82/4 31/83/4 36/84/4
f 90/85/2 83/86/2 80/87/2 86/88/2
f 28/89/2 26/90/2 33/91/2 35/92/2
f 89/93/4 81/94/4 74/95/4 88/96/4
f 25/97/2 28/89/2 35/92/2 32/98/2
f 27/99/4 29/81/4 36/84/4 34/100/4
f 45/101/1 46/102/1 40/103/1 38/104/1
f 54/105/2 47/106/2 44/107/2 50/108/2
f 47/109/3 48/110/3 42/111/3 44/112/3
f 53/113/4 45/114/4 38/115/4 52/116/4
f 49/117/5 51/118/5 41/119/5 43/120/5
f 50/121/6 52/122/6 38/123/6 40/124/6
f 60/125/12 58/126/12 45/114/12 53/113/12
f 56/127/8 57/128/8 48/129/8 47/130/8
f 59/131/9 56/132/9 47/106/9 54/105/9
f 58/133/10 55/134/10 46/135/10 45/136/10
f 55/137/11 59/131/11 54/105/11 46/138/11
f 57/139/12 60/125/12 53/113/12 48/140/12
f 44/141/13 42/142/13 52/122/13 50/121/13
f 39/143/5 37/144/5 51/118/5 49/117/5
f 48/140/4 53/113/4 52/116/4 42/145/4
f 46/138/2 54/105/2 50/108/2 40/146/2
f 70/147/4 72/148/4 60/125/4 57/139/4
f 68/149/2 71/150/2 59/131/2 55/137/2
f 67/151/1 68/152/1 55/153/1 58/154/1
f 71/150/2 69/155/2 56/132/2 59/131/2
f 69/156/3 70/157/3 57/158/3 56/159/3
f 72/148/4 67/160/4 58/126/4 60/125/4
f 51/161/4 37/162/4 66/163/4 65/164/4
f 43/165/3 41/166/3 63/167/3 62/168/3
f 49/169/2 43/170/2 62/171/2 64/172/2
f 37/173/1 39/174/1 61/175/1 66/176/1
f 39/177/2 49/169/2 64/172/2 61/178/2
f 41/179/4 51/161/4 65/164/4 63/180/4
f 65/181/4 66/182/4 67/183/4 72/184/4
f 83/185/3 84/186/3 78/187/3 80/188/3
f 64/189/2 62/190/2 69/191/2 71/192/2
f 81/193/1 82/194/1 76/195/1 74/196/1
f 61/197/2 64/189/2 71/192/2 68/198/2
f 63/199/4 65/181/4 72/184/4 70/200/4
f 86/201/6 88/202/6 74/203/6 76/204/6
f 96/205/7 94/206/7 81/94/7 89/93/7
f 92/207/8 93/208/8 84/209/8 83/210/8
f 95/211/9 92/212/9 83/86/9 90/85/9
f 94/213/10 91/214/10 82/215/10 81/216/10
f 91/217/11 95/211/11 90/85/11 82/218/11
f 93/219/12 96/205/12 89/93/12 84/220/12
f 80/221/13 78/222/13 88/202/13 86/201/13
f 84/220/4 89/93/4 88/96/4 78/223/4
f 82/218/2 90/85/2 86/88/2 76/224/2
f 106/225/4 108/226/4 96/205/4 93/219/4
f 104/227/2 107/228/2 95/211/2 91/217/2
f 103/229/1 104/230/1 91/231/1 94/232/1
f 107/228/2 105/233/2 92/212/2 95/211/2
f 105/234/3 106/235/3 93/236/3 92/237/3
f 108/226/4 103/238/4 94/206/4 96/205/4
f 87/239/4 73/240/4 102/241/4 101/242/4
f 79/243/3 77/244/3 99/245/3 98/246/3
f 85/247/2 79/248/2 98/249/2 100/250/2
f 73/251/1 75/252/1 97/253/1 102/254/1
f 75/255/2 85/247/2 100/250/2 97/256/2
f 77/257/4 87/239/4 101/242/4 99/258/4
f 101/259/4 102/260/4 103/261/4 108/262/4
f 100/263/2 98/264/2 105/265/2 107/266/2
f 97/267/2 100/263/2 107/266/2 104/268/2
f 99/269/4 101/259/4 108/262/4 106/270/4
f 126/271/2 119/272/2 116/273/2 122/274/2
f 125/275/4 117/276/4 110/277/4 124/278/4
f 119/279/3 120/280/3 114/281/3 116/282/3
f 117/283/1 118/284/1 112/285/1 110/286/1
f 122/287/6 124/288/6 110/289/6 112/290/6
f 132/291/7 130/292/7 117/276/7 125/275/7
f 128/293/8 129/294/8 120/295/8 119/296/8
f 131/297/11 128/298/11 119/272/11 126/271/11
f 130/299/10 127/300/10 118/301/10 117/302/10
f 127/303/11 131/297/11 126/271/11 118/304/11
f 129/305/7 132/291/7 125/275/7 120/306/7
f 116/307/13 114/308/13 124/288/13 122/287/13
f 120/306/4 125/275/4 124/278/4 114/309/4
f 118/304/2 126/271/2 122/274/2 112/310/2
f 142/311/4 144/312/4 132/291/4 129/305/4
f 140/313/2 143/314/2 131/297/2 127/303/2
f 139/315/1 140/316/1 127/317/1 130/318/1
f 143/314/2 141/319/2 128/298/2 131/297/2
f 141/320/3 142/321/3 129/322/3 128/323/3
f 144/312/4 139/324/4 130/292/4 132/291/4
f 123/325/4 109/326/4 138/327/4 137/328/4
f 115/329/3 113/330/3 135/331/3 134/332/3
f 121/333/2 115/334/2 134/335/2 136/336/2
f 109/337/1 111/338/1 133/339/1 138/340/1
f 111/341/2 121/333/2 136/336/2 133/342/2
f 113/343/4 123/325/4 137/328/4 135/344/4
f 137/345/4 138/346/4 139/347/4 144/348/4
f 136/349/2 134/350/2 141/351/2 143/352/2
f 133/353/2 136/349/2 143/352/2 140/354/2
f 135/355/4 137/345/4 144/348/4 142/356/4
f 140/354/2 145/357/2 146/358/2 133/353/2
f 145/359/1 148/360/1 147/361/1 146/362/1
f 133/363/5 146/364/5 147/365/5 138/366/5
f 138/346/4 147/367/4 148/368/4 139/347/4
f 139/369/14 148/370/14 145/371/14 140/372/14
f 104/268/2 141/351/2 134/350/2 97/267/2
f 103/373/14 142/374/14 141/375/14 104/376/14
f 102/260/4 135/355/4 142/356/4 103/261/4
f 97/377/5 134/378/5 135/379/5 102/380/5
f 68/198/2 105/265/2 98/264/2 61/197/2
f 67/381/14 106/382/14 105/383/14 68/384/14
f 66/182/4 99/269/4 106/270/4 67/183/4
f 61/385/5 98/386/5 99/387/5 66/388/5
f 25/97/2 32/98/2 69/191/2 62/190/2
f 31/389/14 70/390/14 69/391/14 32/392/14
f 30/393/5 25/394/5 62/395/5 63/396/5
f 30/82/4 63/199/4 70/200/4 31/83/4
f 33/397/14 149/398/14 151/399/14 34/400/14
f 150/401/3 152/402/3 151/403/3 149/404/3
f 34/100/4 151/405/4 152/406/4 27/99/4
f 27/407/5 152/408/5 150/409/5 26/410/5
f 26/90/2 150/411/2 149/412/2 33/91/2
f 79/413/5 85/414/5 87/415/5 77/416/5
f 75/417/5 73/418/5 87/415/5 85/414/5
f 109/419/5 123/420/5 121/421/5 111/422/5
f 113/423/5 115/424/5 121/421/5 123/420/5
