# Blender v2.92.0 OBJ File: 'MIOS.blend'
# www.blender.org
mtllib walls.mtl
o Cube.006_Cube.007
v -2.375232 -0.023301 0.456488
v -2.387758 3.229350 0.353567
v -2.437256 -0.023055 -0.507868
v -2.273285 3.256003 -0.400408
v 2.459477 -0.022899 0.465538
v 2.458316 3.179578 0.367572
v 2.436901 -0.022672 -0.378482
v 2.384222 3.244802 -0.412938
v -2.380626 -0.023704 -0.182863
v -2.351817 -0.023155 0.142226
v -2.393668 1.074573 0.428274
v -2.365167 2.166183 0.453304
v -2.351075 3.248228 0.111288
v -2.373238 3.244910 -0.154416
v -2.327144 2.178171 -0.483932
v -2.364734 1.134859 -0.507786
v 0.787193 -0.022857 -0.398482
v -0.842797 -0.023335 -0.386477
v -0.702757 3.222684 -0.410222
v 0.867073 3.234488 -0.425344
v 2.317584 2.137767 -0.371720
v 2.482985 1.144610 -0.375179
v 2.384588 -0.023493 0.132968
v 2.327900 -0.022930 -0.127823
v 2.253448 3.227488 -0.169331
v 2.378047 3.230830 0.109297
v 2.364483 2.145758 0.453883
v 2.469259 1.000451 0.446231
v -0.762486 -0.023463 0.452555
v 0.727938 -0.023122 0.448364
v 0.795626 3.244122 0.373213
v -0.713878 3.256895 0.362806
v 0.731058 3.325837 -0.148812
v 0.703533 3.206963 0.122764
v -0.768476 3.278049 -0.155367
v -0.799059 3.225272 0.118340
v -0.789348 -0.023126 -0.128753
v -0.689137 -0.023037 0.127277
v 0.803003 -0.022994 -0.136099
v 0.795138 -0.023223 0.129862
v 0.695608 0.998796 0.470739
v -0.780786 1.059891 0.453690
v 0.740068 2.239381 0.442962
v -0.892116 2.137611 0.467270
v 2.261291 1.009129 -0.137250
v 2.312327 1.011055 0.127608
v 2.456864 2.156630 -0.117756
v 2.433789 2.091653 0.123558
v -0.780402 1.032340 -0.381342
v 0.681663 1.025131 -0.383218
v -0.840741 2.128054 -0.396464
v 0.815236 2.073485 -0.375755
v -2.421814 1.127468 0.125141
v -2.459016 1.071853 -0.180052
v -2.356579 2.160711 0.163138
v -2.344224 2.081076 -0.195786
vt 0.428330 0.857258
vt 0.433477 0.998486
vt 0.404486 1.000000
vt 0.394809 0.869110
vt 0.244546 0.394478
vt 0.379507 0.400307
vt 0.381126 0.584463
vt 0.252436 0.576801
vt 0.552163 0.858832
vt 0.552859 0.997197
vt 0.522131 0.990521
vt 0.514699 0.865050
vt 0.522371 0.182302
vt 0.392001 0.203928
vt 0.395159 0.000730
vt 0.518996 0.003482
vt 0.857689 0.202113
vt 0.857704 0.009166
vt 0.896340 0.000000
vt 0.894721 0.210198
vt 0.969707 0.192955
vt 0.968256 0.004546
vt 0.996390 0.000000
vt 0.998172 0.203172
vt 0.969976 0.578625
vt 0.970835 0.375363
vt 1.000000 0.386414
vt 1.000000 0.588287
vt 0.909291 0.579591
vt 0.907215 0.395436
vt 0.939345 0.378754
vt 0.937540 0.563621
vt 0.908316 0.204875
vt 0.937937 0.196756
vt 0.908822 0.014205
vt 0.937365 0.001972
vt 0.859810 0.584125
vt 0.857711 0.382293
vt 0.895532 0.391123
vt 0.896340 0.586896
vt 0.784273 0.594644
vt 0.798035 0.401062
vt 0.827977 0.394516
vt 0.822034 0.587696
vt 0.796285 0.203198
vt 0.826776 0.201219
vt 0.798250 0.002932
vt 0.827406 0.016107
vt 0.773398 0.198002
vt 0.647538 0.195797
vt 0.645739 0.000000
vt 0.773380 0.002229
vt 0.773398 0.589125
vt 0.654444 0.590323
vt 0.654701 0.375022
vt 0.773356 0.378926
vt 0.521406 0.577622
vt 0.510482 0.380431
vt 0.401022 0.589007
vt 0.393529 0.387172
vt 0.554625 0.602156
vt 0.554631 0.727831
vt 0.515975 0.725905
vt 0.515296 0.601681
vt 0.613153 0.602870
vt 0.610592 0.744485
vt 0.585853 0.728022
vt 0.585440 0.602651
vt 0.610721 0.865251
vt 0.579706 0.867011
vt 0.613153 0.999584
vt 0.586533 0.997333
vt 0.000900 0.391617
vt 0.122668 0.378549
vt 0.137055 0.597150
vt 0.001377 0.591883
vt 0.000000 0.000000
vt 0.134597 0.008470
vt 0.123097 0.201110
vt 0.000387 0.193827
vt 0.255859 0.012795
vt 0.250431 0.193434
vt 0.381126 0.019242
vt 0.377694 0.209830
vt 0.429588 0.601720
vt 0.430451 0.734601
vt 0.392001 0.742422
vt 0.392079 0.601774
vt 0.503824 0.601681
vt 0.500832 0.734926
vt 0.465752 0.741355
vt 0.467225 0.601776
vt 0.503824 0.867465
vt 0.470085 0.866855
vt 0.492536 0.996502
vt 0.464245 0.998878
vn -0.9775 0.0225 -0.2096
vn 0.0064 -0.0403 -0.9992
vn 0.9997 -0.0184 -0.0185
vn -0.0073 0.0937 0.9956
vn -0.0000 -1.0000 0.0011
vn -0.0013 0.9997 -0.0260
vn 0.0123 0.9996 0.0235
vn 0.0109 0.9899 -0.1415
vn 0.0284 0.9916 -0.1266
vn 0.0250 0.9792 0.2012
vn -0.0194 0.9618 -0.2729
vn -0.0105 0.9541 0.2992
vn -0.0002 0.9961 -0.0881
vn -0.0034 0.9958 0.0913
vn -0.0000 -1.0000 -0.0009
vn 0.0001 -1.0000 -0.0005
vn 0.0001 -1.0000 -0.0008
vn 0.0002 -1.0000 0.0011
vn 0.0002 -1.0000 0.0001
vn -0.0000 -1.0000 -0.0003
vn -0.0001 -1.0000 -0.0015
vn -0.0066 0.0123 0.9999
vn -0.0130 -0.0183 0.9997
vn 0.0021 -0.0015 1.0000
vn -0.0046 -0.0113 0.9999
vn 0.0042 0.0085 1.0000
vn 0.0023 0.0062 1.0000
vn 0.0021 0.0762 0.9971
vn 0.0021 0.0815 0.9967
vn 0.9419 0.0246 -0.3349
vn 0.9910 -0.0072 -0.1333
vn 0.8269 0.0093 0.5623
vn 0.9776 0.0643 -0.2005
vn 0.9867 -0.0156 0.1616
vn 0.9875 -0.1400 -0.0720
vn 0.9979 0.0619 -0.0173
vn 0.9779 0.1094 -0.1780
vn 0.0078 0.0086 -0.9999
vn 0.0034 0.0054 -1.0000
vn 0.0777 -0.0024 -0.9970
vn -0.0045 0.0096 -0.9999
vn 0.0697 0.0048 -0.9976
vn 0.0060 -0.0038 -1.0000
vn 0.0262 0.0298 -0.9992
vn 0.0014 -0.0282 -0.9996
vn -0.9983 -0.0025 -0.0578
vn -0.9845 0.0737 -0.1589
vn -0.9992 -0.0392 0.0043
vn -0.9919 -0.0648 0.1097
vn -0.9984 0.0430 0.0363
vn -0.9960 0.0876 0.0194
vn -0.9963 -0.0139 -0.0851
vn -0.9998 -0.0104 0.0171
usemtl None
s off
f 56/1/1 14/2/1 4/3/1 15/4/1
f 52/5/2 20/6/2 8/7/2 21/8/2
f 48/9/3 26/10/3 6/11/3 27/12/3
f 44/13/4 32/14/4 2/15/4 12/16/4
f 40/17/5 23/18/5 5/19/5 30/20/5
f 36/21/6 13/22/6 2/23/6 32/24/6
f 26/25/7 34/26/7 31/27/7 6/28/7
f 34/26/8 36/21/8 32/24/8 31/27/8
f 8/29/9 20/30/9 33/31/9 25/32/9
f 25/32/10 33/31/10 34/26/10 26/25/10
f 20/30/11 19/33/11 35/34/11 33/31/11
f 33/31/12 35/34/12 36/21/12 34/26/12
f 19/33/13 4/35/13 14/36/13 35/34/13
f 35/34/14 14/36/14 13/22/14 36/21/14
f 10/37/15 38/38/15 29/39/15 1/40/15
f 38/38/16 40/17/16 30/20/16 29/39/16
f 3/41/17 18/42/17 37/43/17 9/44/17
f 9/44/18 37/43/18 38/38/18 10/37/18
f 18/42/19 17/45/19 39/46/19 37/43/19
f 37/43/20 39/46/20 40/17/20 38/38/20
f 17/45/17 7/47/17 24/48/17 39/46/17
f 39/46/21 24/48/21 23/18/21 40/17/21
f 29/49/22 42/50/22 11/51/22 1/52/22
f 42/50/23 44/13/23 12/16/23 11/51/23
f 5/53/24 28/54/24 41/55/24 30/56/24
f 30/56/25 41/55/25 42/50/25 29/49/25
f 28/54/26 27/57/26 43/58/26 41/55/26
f 41/55/27 43/58/27 44/13/27 42/50/27
f 27/57/28 6/59/28 31/60/28 43/58/28
f 43/58/29 31/60/29 32/14/29 44/13/29
f 23/61/30 46/62/30 28/63/30 5/64/30
f 46/62/31 48/9/31 27/12/31 28/63/31
f 7/65/32 22/66/32 45/67/32 24/68/32
f 24/68/33 45/67/33 46/62/33 23/61/33
f 22/66/34 21/69/34 47/70/34 45/67/34
f 45/67/35 47/70/35 48/9/35 46/62/35
f 21/69/36 8/71/36 25/72/36 47/70/36
f 47/70/37 25/72/37 26/10/37 48/9/37
f 17/73/38 50/74/38 22/75/38 7/76/38
f 50/74/39 52/5/39 21/8/39 22/75/39
f 3/77/40 16/78/40 49/79/40 18/80/40
f 18/80/41 49/79/41 50/74/41 17/73/41
f 16/78/42 15/81/42 51/82/42 49/79/42
f 49/79/43 51/82/43 52/5/43 50/74/43
f 15/81/44 4/83/44 19/84/44 51/82/44
f 51/82/45 19/84/45 20/6/45 52/5/45
f 9/85/46 54/86/46 16/87/46 3/88/46
f 54/86/47 56/1/47 15/4/47 16/87/47
f 1/89/48 11/90/48 53/91/48 10/92/48
f 10/92/49 53/91/49 54/86/49 9/85/49
f 11/90/50 12/93/50 55/94/50 53/91/50
f 53/91/51 55/94/51 56/1/51 54/86/51
f 12/93/52 2/95/52 13/96/52 55/94/52
f 55/94/53 13/96/53 14/2/53 56/1/53
